<?xml version="1.0" standalone="no"?><!DOCTYPE svg PUBLIC "-//W3C//DTD SVG 1.1//EN" "http://www.w3.org/Graphics/SVG/1.1/DTD/svg11.dtd"><svg t="1541215559712" class="icon" style="" viewBox="0 0 1024 1024" version="1.1" xmlns="http://www.w3.org/2000/svg" p-id="6682" xmlns:xlink="http://www.w3.org/1999/xlink" width="48" height="48"><defs><style type="text/css"></style></defs><path d="M353.927333 555.175335c-0.544399 0.724501-1.086751 1.471514-1.335415 2.378164L310.406121 717.432813c-2.446725 9.312086 0.068562 19.34765 6.729262 26.41665 4.984524 5.02955 11.553127 7.7935 18.554588 7.7935 2.310625 0 4.620227-0.272199 6.886851-0.906649l153.535839-43.295062c0.249687 0 0.36225 0.226151 0.543376 0.226151 1.768273 0 3.51301-0.656963 4.803399-2.060939l410.565796-424.407036c12.187577-12.618389 18.87079-29.814026 18.87079-48.52825 0-21.205974-8.700149-42.388413-23.923876-58.111512l-38.763862-40.145325c-15.223726-15.744589-35.750225-24.761963-56.231699-24.761963-18.101263 0-34.729989 6.910387-46.964638 19.506263L354.53927 553.700751C354.108458 554.10905 354.223069 554.699498 353.927333 555.175335L353.927333 555.175335M871.833857 239.627612l-40.780799 42.138726-66.085114-69.438489 40.188304-41.550325c6.343475-6.615675 18.669198-5.641487 25.964348 1.925862l38.809911 40.145325c4.03285 4.191462 6.341429 9.741875 6.341429 15.247262C876.250446 232.604662 874.711394 236.70505 871.833857 239.627612L871.833857 239.627612M426.923858 561.835012l296.242028-306.303174 66.154699 69.485561-295.700699 305.712727L426.923858 561.835012 426.923858 561.835012 426.923858 561.835012 426.923858 561.835012zM372.958782 686.031639l21.409612-81.244372 57.113789 59.041698L372.958782 686.031639 372.958782 686.031639 372.958782 686.031639 372.958782 686.031639zM897.842207 407.821289c-15.541975 0-28.274974 13.07376-28.342512 29.362748l0 395.678738c0 20.75265-16.291035 37.608549-36.385698 37.608549L185.710121 870.471324c-20.073174 0-36.430724-16.856923-36.430724-37.608549L149.279397 187.021487c0-20.775162 16.35755-37.631062 36.430724-37.631062l416.95225 0c15.633049 0 28.321022-13.139252 28.321022-29.293163 0-16.129352-12.68695-29.271674-28.321022-29.271674L181.382559 90.825588c-48.913013 0-88.741114 41.143049-88.741114 91.755774l0 654.766564c0 50.612725 39.828101 91.733261 88.741114 91.733261l656.013975 0c48.959062 0 88.742137-41.120536 88.742137-91.733261l0-400.36855C926.092621 420.895049 913.383158 407.821289 897.842207 407.821289L897.842207 407.821289" p-id="6683"></path></svg>