<?xml version="1.0" standalone="no"?><!DOCTYPE svg PUBLIC "-//W3C//DTD SVG 1.1//EN" "http://www.w3.org/Graphics/SVG/1.1/DTD/svg11.dtd"><svg t="1541231473714" class="icon" style="" viewBox="0 0 1024 1024" version="1.1" xmlns="http://www.w3.org/2000/svg" p-id="2265" xmlns:xlink="http://www.w3.org/1999/xlink" width="48" height="48"><defs><style type="text/css"></style></defs><path d="M315.08 551.42h-157.5c-86.6 0-157.5 70.9-157.5 157.5v157.5c0 86.6 70.9 157.5 157.5 157.5h157.5c86.6 0 157.5-70.9 157.5-157.5v-157.5c0-86.6-70.9-157.5-157.5-157.5z m78.8 315c0 43.3-35.4 78.8-78.8 78.8h-157.5c-43.3 0-78.8-35.4-78.8-78.8v-157.5c0-43.3 35.4-78.8 78.8-78.8h157.5c43.3 0 78.8 35.4 78.8 78.8v157.5zM866.48 0.02h-157.6c-86.6 0-157.5 70.9-157.5 157.5v157.5c0 86.6 70.9 157.5 157.5 157.5h157.5c86.6 0 157.5-70.9 157.5-157.5v-157.5c0.1-86.6-70.8-157.5-157.4-157.5z m78.8 315.1c0 43.3-35.4 78.8-78.8 78.8h-157.6c-43.3 0-78.8-35.4-78.8-78.8v-157.6c0-43.3 35.4-78.8 78.8-78.8h157.5c43.3 0 78.8 35.4 78.8 78.8v157.6z m-78.8 236.3h-157.6c-86.6 0-157.5 70.9-157.5 157.5v157.5c0 86.6 70.9 157.5 157.5 157.5h157.5c86.6 0 157.5-70.9 157.5-157.5v-157.5c0.1-86.6-70.8-157.5-157.4-157.5z m78.8 315c0 43.3-35.4 78.8-78.8 78.8h-157.6c-43.3 0-78.8-35.4-78.8-78.8v-157.5c0-43.3 35.4-78.8 78.8-78.8h157.5c43.3 0 78.8 35.4 78.8 78.8v157.5zM315.08 0.02h-157.5C70.98 0.02 0.08 70.92 0.08 157.52v157.5c0 86.6 70.9 157.5 157.5 157.5h157.5c86.6 0 157.5-70.9 157.5-157.5v-157.5c0-86.6-70.9-157.5-157.5-157.5z m78.8 315.1c0 43.3-35.4 78.8-78.8 78.8h-157.5c-43.3 0-78.8-35.4-78.8-78.8v-157.6c0-43.3 35.4-78.8 78.8-78.8h157.5c43.3 0 78.8 35.4 78.8 78.8v157.6z" fill="#917253" p-id="2266"></path></svg>