<?xml version="1.0" standalone="no"?><!DOCTYPE svg PUBLIC "-//W3C//DTD SVG 1.1//EN" "http://www.w3.org/Graphics/SVG/1.1/DTD/svg11.dtd"><svg t="1541215573350" class="icon" style="" viewBox="0 0 1024 1024" version="1.1" xmlns="http://www.w3.org/2000/svg" p-id="6805" xmlns:xlink="http://www.w3.org/1999/xlink" width="48" height="48"><defs><style type="text/css"></style></defs><path d="M788.551 292.895c-74.801 0-135.633-60.832-135.633-135.605v-156.171h-487.636c-45.595 0-82.548 36.982-82.548 82.549v856.719c0 45.567 36.955 82.493 82.548 82.493h693.46c45.571 0 82.523-36.926 82.523-82.493v-647.493h-152.714zM805.084 839.116h-586.199v-55.301h586.199v55.301zM805.084 662.15h-586.199v-55.301h586.199v55.301zM805.084 485.184h-586.199v-55.301h586.199v55.301z" p-id="6806"></path><path d="M706.002 1.119v156.171c0 45.567 36.955 82.493 82.549 82.493h152.714l-235.263-238.662z" p-id="6807"></path></svg>