<?xml version="1.0" standalone="no"?><!DOCTYPE svg PUBLIC "-//W3C//DTD SVG 1.1//EN" "http://www.w3.org/Graphics/SVG/1.1/DTD/svg11.dtd"><svg t="1541396976489" class="icon" style="" viewBox="0 0 1024 1024" version="1.1" xmlns="http://www.w3.org/2000/svg" p-id="2143" xmlns:xlink="http://www.w3.org/1999/xlink" width="48" height="48"><defs><style type="text/css"></style></defs><path d="M131.799 168.629c-35.687 0-64.607 28.763-64.607 64.226s28.921 64.216 64.607 64.216c35.687 0 64.607-28.755 64.607-64.218 0-35.463-28.921-64.226-64.607-64.226zM931.273 164.942h-635.181c-14.711 0-26.599 11.843-26.599 26.439v73.212c0 14.607 11.888 26.439 26.599 26.439h635.181c14.689 0 26.599-11.834 26.599-26.439v-73.212c0-14.598-11.91-26.439-26.599-26.439zM931.273 445.195h-635.181c-14.711 0-26.599 11.834-26.599 26.45v73.213c0 14.598 11.888 26.439 26.599 26.439h635.181c14.689 0 26.599-11.843 26.599-26.439v-73.213c0-14.618-11.91-26.45-26.599-26.45zM931.273 725.455h-635.181c-14.711 0-26.599 11.832-26.599 26.431v73.213c0 14.597 11.888 26.449 26.599 26.449h635.181c14.689 0 26.599-11.853 26.599-26.449v-73.213c0-14.598-11.91-26.431-26.599-26.431zM131.799 448.881c-35.687 0-64.607 28.754-64.607 64.227 0 35.464 28.921 64.218 64.607 64.218 35.687 0 64.607-28.754 64.607-64.218 0-35.471-28.921-64.227-64.607-64.227zM131.799 729.144c-35.687 0-64.607 28.754-64.607 64.216 0 35.464 28.921 64.216 64.607 64.216 35.687 0 64.607-28.754 64.607-64.218 0-35.463-28.921-64.216-64.607-64.216z" fill="#305CBC" p-id="2144"></path></svg>