<?xml version="1.0" standalone="no"?><!DOCTYPE svg PUBLIC "-//W3C//DTD SVG 1.1//EN" "http://www.w3.org/Graphics/SVG/1.1/DTD/svg11.dtd"><svg t="1541216572499" class="icon" style="" viewBox="0 0 1024 1024" version="1.1" xmlns="http://www.w3.org/2000/svg" p-id="7377" xmlns:xlink="http://www.w3.org/1999/xlink" width="48" height="48"><defs><style type="text/css"></style></defs><path d="M99.513403 19.692308m78.769231 0l630.153846 0q78.769231 0 78.769231 78.76923l0 827.076924q0 78.769231-78.769231 78.76923l-630.153846 0q-78.769231 0-78.769231-78.76923l0-827.076924q0-78.769231 78.769231-78.76923Z" fill="#F3E5FF" p-id="7378"></path><path d="M808.43648 1024H178.282634a98.461538 98.461538 0 0 1-98.461539-98.461538V98.461538a98.461538 98.461538 0 0 1 98.461539-98.461538h630.153846a98.461538 98.461538 0 0 1 98.461538 98.461538v827.076924a98.461538 98.461538 0 0 1-98.461538 98.461538zM178.282634 39.384615a59.076923 59.076923 0 0 0-59.076923 59.076923v827.076924a59.076923 59.076923 0 0 0 59.076923 59.076923h630.153846a59.076923 59.076923 0 0 0 59.076923-59.076923V98.461538a59.076923 59.076923 0 0 0-59.076923-59.076923z" fill="#2C2C5F" p-id="7379"></path><path d="M690.282634 256H296.43648a19.692308 19.692308 0 0 1 0-39.384615h393.846154a19.692308 19.692308 0 0 1 0 39.384615zM690.282634 433.230769H296.43648a19.692308 19.692308 0 0 1 0-39.384615h393.846154a19.692308 19.692308 0 0 1 0 39.384615zM690.282634 610.461538H296.43648a19.692308 19.692308 0 0 1 0-39.384615h393.846154a19.692308 19.692308 0 0 1 0 39.384615z" fill="#2C2C5F" p-id="7380"></path><path d="M690.282634 787.692308H296.43648a19.692308 19.692308 0 0 1 0-39.384616h393.846154a19.692308 19.692308 0 0 1 0 39.384616z" fill="#2C2C5F" p-id="7381"></path></svg>