<?xml version="1.0" standalone="no"?><!DOCTYPE svg PUBLIC "-//W3C//DTD SVG 1.1//EN" "http://www.w3.org/Graphics/SVG/1.1/DTD/svg11.dtd"><svg t="1540822048011" class="icon" style="" viewBox="0 0 1024 1024" version="1.1" xmlns="http://www.w3.org/2000/svg" p-id="4033" xmlns:xlink="http://www.w3.org/1999/xlink" width="48" height="48"><defs><style type="text/css"></style></defs><path d="M681.792758 37.346461C681.792758 16.686717 698.479473 0 719.211456 0 739.943439 0 756.630154 16.686717 756.630154 37.346461L756.630154 162.207888C756.630154 183.012106 739.871204 199.698822 719.211456 199.698822 698.551714 199.698822 681.720523 182.939869 681.792758 162.280124L681.792758 37.346461ZM580.011013 37.707645 580.011013 144.148671 654.776169 144.148671 654.776169 37.707645 580.011013 37.707645ZM552.994424 162.207888 552.994424 37.346461C552.994424 16.686717 536.307704 0 515.575727 0 494.843744 0 478.229264 16.686717 478.229264 37.346461L478.229264 162.207888C478.157027 182.939869 494.988218 199.698822 515.575727 199.698822 536.235469 199.698822 552.994424 183.012106 552.994424 162.207888ZM349.430928 162.207888 349.430928 37.346461C349.430928 16.686717 332.744211 0 312.01223 0 291.280249 0 274.593532 16.686717 274.593532 37.346461L274.593532 162.207888C274.521296 182.939869 291.280249 199.698822 312.01223 199.698822 332.671975 199.698822 349.430928 183.012106 349.430928 162.207888ZM783.646743 37.707645 783.646743 144.148671 917.610016 144.148671 917.610016 917.299875 299.515252 917.299875 299.515252 774.37923 106.534458 774.37923 106.534458 144.220908 247.64918 144.220908 247.64918 37.779882 104.222879 37.779882C57.991283 37.779882 0.021196 95.749969 0.021196 141.981565L0.021196 787.237389C0.021196 806.163448 8.761857 823.139114 22.414625 834.191354L241.147862 1011.171685C252.777998 1020.273526 267.008661 1024.535504 281.022614 1023.957608L919.77712 1023.957608C966.008719 1023.957608 1023.978804 965.987523 1023.978804 919.755924L1023.978804 141.909328C1023.978804 95.677732 966.008719 37.707645 919.921595 37.707645L783.646743 37.707645ZM376.447517 37.707645 376.447517 144.148671 451.212675 144.148671 451.212675 37.707645 376.447517 37.707645ZM539.856342 639.079575 522.519495 656.416421 704.556401 838.453332C705.278772 839.175698 706.145614 839.681359 707.08469 839.898069L847.079744 877.389002C849.030138 877.894658 851.125007 877.389002 852.569744 875.944265 854.014482 874.499527 854.592378 872.404658 854.014482 870.454265L816.523549 730.459211C816.234598 729.520134 815.728942 728.581052 815.078811 727.930921L633.041901 545.894016 582.620569 596.315347 764.657475 778.352257 721.893252 821.11648 539.856342 639.079575 539.856342 639.079575ZM506.410672 271.610625C471.375791 236.575744 424.855248 218.010869 377.395625 218.010869 353.846406 218.010869 330.080477 222.561791 307.3981 231.952584 304.942047 232.9639 303.208362 235.05877 302.702704 237.659297 302.197046 240.11535 303.063888 242.860351 304.86981 244.666273L417.848272 357.644735 400.078002 423.524759 334.125741 441.150555 221.291753 328.316566C219.774779 326.799592 217.752147 326.004987 215.657277 326.004987 215.223856 326.004987 214.718198 326.077224 214.21254 326.14946 211.68425 326.655118 209.517144 328.388803 208.578064 330.77262 180.188975 399.325408 195.792138 477.413462 248.163868 529.785191 283.776644 565.397966 330.513898 583.168238 377.251152 583.168238 398.05537 583.168238 418.859588 579.628632 438.724727 572.621654L508.866726 642.763656 619.389136 532.241246 549.319374 462.099247C572.14622 397.808434 557.987795 323.043275 506.410672 271.610625L506.410672 271.610625Z" p-id="4034"></path></svg>