<?xml version="1.0" standalone="no"?><!DOCTYPE svg PUBLIC "-//W3C//DTD SVG 1.1//EN" "http://www.w3.org/Graphics/SVG/1.1/DTD/svg11.dtd"><svg t="1540822144760" class="icon" style="" viewBox="0 0 1024 1024" version="1.1" xmlns="http://www.w3.org/2000/svg" p-id="7024" xmlns:xlink="http://www.w3.org/1999/xlink" width="48" height="48"><defs><style type="text/css"></style></defs><path d="M511.808 416.704c0 0 96.768-2.688 95.424 95.296 0 0 11.648 95.296-95.424 95.296 0 0-96.512-7.936-96.512-95.296C415.296 512 421.632 416.704 511.808 416.704z" p-id="7025"></path><path d="M878.72 416.64l94.016 0c0 0 47.488 10.624 47.488 50.368l0 91.392c0 0 0.128 48.96-32.96 48.96L878.72 607.36c0 0 7.872 45.056-33.152 95.296l62.272 66.24c0 0 39.744 56.96 0 92.672l-46.4 49.024c0 0-56.96 43.712-95.296 0l-63.552-63.552c0 0-41.6 39.744-94.976 33.152l0 88.768c0 0-10.944 51.584-62.656 51.584L468.224 1020.544c0 0-54.272 1.344-52.992-33.088l0-109.888c0 0-66.176 1.28-94.016-31.808l-64.832 63.552c0 0-50.368 43.712-94.016 0l-47.68-46.4c0 0-34.432-51.648 0-95.296l63.552-67.584c0 0-38.464-31.744-31.808-92.672L36.608 607.36c0 0-33.28-1.344-33.28-50.304L3.328 465.664c0 0-5.184-47.68 51.776-49.024l95.296 0L288.192 512c0 0-13.504 223.744 223.616 225.152 0 0 221.248 11.968 222.592-219.904L878.72 416.64z" p-id="7026"></path><path d="M150.464 416.64c0 0-13.248-50.304 29.184-95.36L114.688 259.072c0 0-33.152-52.928 0-96.64l51.648-47.68c0 0 43.712-46.4 90.048 0l63.552 63.552c0 0 34.432-33.088 95.36-33.088L415.296 55.168c0 0 5.312-51.584 51.648-51.584l93.952 0c0 0 45.888 5.312 46.72 50.304L607.616 145.28c0 0 61.888-2.688 94.976 34.432l64.896-63.552c0 0 41.024-39.744 79.424 1.344l62.272 62.272c0 0 33.088 43.712 0 76.8l-63.552 67.52c0 0 38.4 29.12 33.152 92.672l-144.384 100.608c0 0 7.936-222.464-222.464-227.712 0 0-229.056 1.344-223.744 222.464L150.464 416.64z" p-id="7027"></path></svg>