<?xml version="1.0" standalone="no"?><!DOCTYPE svg PUBLIC "-//W3C//DTD SVG 1.1//EN" "http://www.w3.org/Graphics/SVG/1.1/DTD/svg11.dtd"><svg t="1540822595547" class="icon" style="" viewBox="0 0 1194 1024" version="1.1" xmlns="http://www.w3.org/2000/svg" p-id="7920" xmlns:xlink="http://www.w3.org/1999/xlink" width="55.96875" height="48"><defs><style type="text/css"></style></defs><path d="M1082.709333 726.016v-232.96h-448V303.402667h448V0H112.042667v303.402667h448v189.653333h-448v232.96C46.250667 743.168 0.213333 803.285333 0 872.277333 0.085333 956.032 66.901333 1023.914667 149.333333 1024c82.432-0.085333 149.248-67.968 149.333334-151.722667 0-70.485333-47.786667-129.28-112.042667-146.261333v-157.141333h373.333333v157.141333c-65.706667 17.194667-111.786667 77.312-111.957333 146.261333 0.085333 83.754667 66.901333 151.637333 149.333333 151.722667 82.432-0.085333 149.248-67.968 149.333334-151.722667 0-70.485333-47.786667-129.28-112.042667-146.261333v-157.141333h373.418667v157.141333c-65.792 17.152-111.829333 77.312-112.042667 146.261333 0.085333 83.754667 66.901333 151.637333 149.333333 151.722667 82.432-0.085333 149.248-67.968 149.333334-151.722667 0-70.485333-47.786667-129.28-112.042667-146.261333h0.085333z" p-id="7921"></path></svg>