<?xml version="1.0" standalone="no"?><!DOCTYPE svg PUBLIC "-//W3C//DTD SVG 1.1//EN" "http://www.w3.org/Graphics/SVG/1.1/DTD/svg11.dtd"><svg t="1540822135002" class="icon" style="" viewBox="0 0 1024 1024" version="1.1" xmlns="http://www.w3.org/2000/svg" p-id="6356" xmlns:xlink="http://www.w3.org/1999/xlink" width="48" height="48"><defs><style type="text/css"></style></defs><path d="M131.072 577.536c73.728 0 36.864 0 73.728 0 73.728 0 73.728-155.648 73.728-196.608 0-118.784-217.088-118.784-217.088 0C57.344 421.888 57.344 577.536 131.072 577.536zM454.656 520.192c114.688 0 57.344 0 114.688 0 114.688 0 114.688-233.472 114.688-290.816 0-176.128-339.968-176.128-339.968 0C344.064 286.72 344.064 520.192 454.656 520.192zM823.296 577.536c73.728 0 36.864 0 73.728 0 73.728 0 73.728-155.648 73.728-196.608 0-118.784-217.088-118.784-217.088 0C749.568 421.888 749.568 577.536 823.296 577.536zM978.944 729.088c-45.056-45.056-135.168-65.536-217.088-61.44 32.768 12.288 65.536 32.768 86.016 57.344 36.864 36.864 53.248 98.304 61.44 143.36L1024 868.352C1024 868.352 1024 774.144 978.944 729.088zM45.056 729.088C0 774.144 0 868.352 0 868.352l114.688 0c8.192-45.056 24.576-106.496 61.44-143.36 20.48-24.576 49.152-40.96 81.92-53.248C180.224 663.552 90.112 679.936 45.056 729.088zM249.856 724.992c-65.536 69.632-65.536 204.8-65.536 204.8l659.456 0c0 0 0-135.168-65.536-204.8C663.552 610.304 364.544 606.208 249.856 724.992z" p-id="6357"></path></svg>