<?xml version="1.0" standalone="no"?><!DOCTYPE svg PUBLIC "-//W3C//DTD SVG 1.1//EN" "http://www.w3.org/Graphics/SVG/1.1/DTD/svg11.dtd"><svg t="1540821981190" class="icon" style="" viewBox="0 0 1024 1024" version="1.1" xmlns="http://www.w3.org/2000/svg" p-id="1954" xmlns:xlink="http://www.w3.org/1999/xlink" width="48" height="48"><defs><style type="text/css"></style></defs><path d="M618.616683 432.146789c42.636556-18.066337 88.163726-27.460833 134.41355-27.460833h13.730416c21.679605-54.921665 27.460833-120.683133 16.621031-183.553987C757.366154 75.878617 620.06199-21.679605 476.253945 4.335921 332.4459 29.628793 210.317459 141.640085 236.332985 286.893437c5.058574 31.0741 20.956951 80.214538 38.300635 115.624559L13.033056 780.465773c-9.394495 13.730416-15.175723 39.023289-12.28511 55.644319l11.562456 64.316161c-10.839802-62.1482 2.890614 22.402258 11.562456 22.402258l85.995766 1.445307c16.62103-2.890614 37.577982-17.343684 46.249823-31.0741L260.18055 731.325335l0.722654-0.722653 90.331687 7.226535 120.683133-189.335216h1.445307c10.839802-14.45307 22.402258-28.90614 36.132675-41.913902 31.0741-32.519407 67.929428-57.089626 109.120677-74.43331z m-549.216655 388.064926l-13.007763 5.058574 1.445307-13.730416L308.598335 448.045166l15.175723 13.730416-254.37403 358.436133z m380.838391-669.177135c39.745942-57.089626 117.792519-71.542696 174.159492-31.0741 56.366972 40.468596 70.097389 118.515173 31.0741 176.327452-39.745942 57.089626-80.214538 16.62103-136.58151-23.124912-56.366972-41.191249-107.675371-65.038814-68.652082-122.12844z" p-id="1955"></path><path d="M749.416965 474.783345c-151.757234 0-274.608327 122.851094-274.608327 274.608328s122.851094 274.608327 274.608327 274.608327 274.608327-122.851094 274.608328-274.608327-122.851094-274.608327-274.608328-274.608328z m158.983769 387.342273c0 41.191249-78.769231 50.585745-152.479887 50.585744s-153.202541-9.394495-153.202541-50.585744v-11.562456c0-30.351447 54.199012-60.702893 100.448836-77.323924 3.613267-1.445307 19.511644-10.117149 10.117149-33.242061-23.124912-23.124912-40.468596-61.425547-40.468596-99.003528 0-57.089626 37.577982-87.441073 82.382498-87.441073 44.081863 0 82.382498 29.628793 82.382499 87.441073 0 36.855328-17.343684 75.155963-40.468596 98.280875-8.671842 26.738179 5.058574 33.242061 7.226535 33.24206 48.417784 15.898377 103.33945 46.249824 103.339449 77.323924l0.722654 12.28511z" p-id="1956"></path></svg>