<?xml version="1.0" standalone="no"?><!DOCTYPE svg PUBLIC "-//W3C//DTD SVG 1.1//EN" "http://www.w3.org/Graphics/SVG/1.1/DTD/svg11.dtd"><svg t="1540822113225" class="icon" style="" viewBox="0 0 1024 1024" version="1.1" xmlns="http://www.w3.org/2000/svg" p-id="5558" xmlns:xlink="http://www.w3.org/1999/xlink" width="48" height="48"><defs><style type="text/css"></style></defs><path d="M514.56 518.144m-499.2 0a499.2 499.2 0 1 0 998.4 0 499.2 499.2 0 1 0-998.4 0Z" fill="#09435B" p-id="5559"></path><path d="M839.68 775.168V732.16c0-87.552-156.672-111.616-156.672-111.616H367.616s-158.208 24.064-158.208 111.616v42.496s-0.512 32.256 50.688 33.28c50.688 1.024 265.216 0 265.216 0s214.016 1.024 264.704 0c51.2-0.512 49.664-32.768 49.664-32.768z" fill="#F04D4E" p-id="5560"></path><path d="M578.56 614.4h-52.736l-158.208 3.072s-158.208 27.136-158.208 114.688v42.496s-0.512 32.256 50.688 33.28c50.688 1.024 51.2-0.512 51.2-0.512L466.432 691.2H578.56V614.4z" fill="#D84850" p-id="5561"></path><path d="M430.08 522.24h189.44v117.76h-189.44z" fill="#C7928E" p-id="5562"></path><path d="M701.952 357.888S727.04 431.104 660.48 475.136v-131.584l41.472 14.336zM337.408 357.888S327.68 431.104 378.88 475.136v-131.584l-41.472 14.336z" fill="#333333" p-id="5563"></path><path d="M378.88 344.576V478.208s32.768 115.2 146.432 115.2S670.72 476.16 670.72 476.16v-122.368s6.144-174.08-145.408-174.08S378.88 344.576 378.88 344.576z" fill="#FECCCB" p-id="5564"></path><path d="M527.36 593.92c-112.64 0-148.48-115.2-148.48-115.2v-133.632s-5.12-164.864 148.48-164.864V593.92z" fill="#D8AEAF" p-id="5565"></path><path d="M463.872 273.92s24.064 96.768 249.344 96.768c0 0-3.584-194.048-186.368-194.048s-188.928 194.56-188.928 194.56 76.288-20.992 125.952-97.28z" fill="#2B2B2B" p-id="5566"></path><path d="M428.032 557.056L368.128 619.52 465.92 692.224l62.464-48.64z" fill="#B6D5D0" p-id="5567"></path><path d="M621.568 557.056L681.984 619.52l-97.792 72.704-62.464-48.64z" fill="#B6D5D0" p-id="5568"></path></svg>