<?xml version="1.0" standalone="no"?><!DOCTYPE svg PUBLIC "-//W3C//DTD SVG 1.1//EN" "http://www.w3.org/Graphics/SVG/1.1/DTD/svg11.dtd"><svg t="1540822667148" class="icon" style="" viewBox="0 0 1024 1024" version="1.1" xmlns="http://www.w3.org/2000/svg" p-id="9192" xmlns:xlink="http://www.w3.org/1999/xlink" width="48" height="48"><defs><style type="text/css"></style></defs><path d="M543.318368 468.894906l63.449614-63.923793-85.713429-86.390827-63.472194 63.946373c-14.880176-8.377155-30.66355-15.331775-47.417861-20.096141l0-90.116516-121.254245 0 0 90.116516c-16.347872 4.674046-31.747387 11.448026-46.311444 19.531643l-67.943021-68.439779-87.429504 88.084322 67.920441 68.462359c-8.015877 14.676957-14.744697 30.189372-19.373583 46.650143l-89.416538 0 0 122.202602 89.416538 0c4.741786 16.867211 11.651246 32.786064 19.960662 47.77914l-63.472194 63.946373 85.758589 86.390827 63.472194-63.968953c14.880176 8.377155 30.66355 15.331775 47.417861 20.118721l0 90.116516 121.254245 0 0-90.116516c16.347872-4.674046 31.724807-11.448026 46.288864-19.531643l67.943021 68.462359 87.452084-88.106902-67.943021-68.4172c8.038456-14.676957 14.767277-30.211951 19.396163-46.650143l89.393958 0 0-122.202602-89.393958 0C558.537244 499.806836 551.650364 483.887982 543.318368 468.894906zM349.514796 679.656009c-55.817596 0-101.067784-45.634046-101.067784-101.858082 0-56.246615 45.250187-101.835502 101.067784-101.835502 55.817596 0 101.067784 45.611466 101.067784 101.835502C450.56 634.021963 405.332393 679.656009 349.514796 679.656009zM1006.410232 363.943374 1006.410232 282.474972l-59.972304 0c-3.161191-11.154487-7.699757-21.676736-13.164101-31.611907l42.540595-42.856714-57.194972-57.601411-42.314796 42.630915c-9.890011-5.599824-20.41226-10.22871-31.589327-13.412481L844.715325 119.53817l-80.836163 0 0 60.085204c-10.883528 3.116031-21.157398 7.632018-30.84419 13.051202l-45.295347-45.634046-58.301389 58.730408 45.521147 45.859846c-5.283705 9.709372-9.731951 19.983241-12.780243 30.86677l-59.949724 0 0 81.468401 59.949724 0c3.161191 11.154487 7.699757 21.699316 13.186681 31.634487l-42.540595 42.834135 57.149813 57.623991 42.337376-42.676075c9.890011 5.599824 20.41226 10.25129 31.566748 13.435061l0 60.085204 80.836163 0 0-60.062624c10.883528-3.116031 21.179978-7.632018 30.84419-13.051202l45.317927 45.656626 58.301389-58.752988-45.521147-45.859846c5.261125-9.731951 9.731951-19.983241 12.780243-30.86677L1006.410232 363.965954zM804.297244 391.084454c-37.234311 0-67.378523-30.392591-67.378523-67.875281s30.144212-67.875281 67.378523-67.875281c37.166571 0 67.355943 30.392591 67.355943 67.875281S841.463815 391.084454 804.297244 391.084454z" p-id="9193"></path></svg>