<?xml version="1.0" standalone="no"?><!DOCTYPE svg PUBLIC "-//W3C//DTD SVG 1.1//EN" "http://www.w3.org/Graphics/SVG/1.1/DTD/svg11.dtd"><svg t="1540823485039" class="icon" style="" viewBox="0 0 1024 1024" version="1.1" xmlns="http://www.w3.org/2000/svg" p-id="10561" xmlns:xlink="http://www.w3.org/1999/xlink" width="48" height="48"><defs><style type="text/css"></style></defs><path d="M692.224 348.16c12.288 0 22.528 0 34.816 2.048C696.32 202.752 540.672 94.208 362.496 94.208 163.84 94.208 0 231.424 0 403.456c0 100.352 55.296 182.272 145.408 243.712L108.544 757.76l126.976-63.488c45.056 8.192 81.92 18.432 126.976 18.432 12.288 0 22.528 0 34.816-2.048-6.144-24.576-10.24-49.152-10.24-75.776-2.048-159.744 133.12-286.72 305.152-286.72z m-194.56-98.304c26.624 0 45.056 18.432 45.056 45.056 0 26.624-18.432 45.056-45.056 45.056-26.624 0-55.296-18.432-55.296-45.056 2.048-28.672 28.672-45.056 55.296-45.056z m-253.952 90.112c-26.624 0-55.296-18.432-55.296-45.056 0-26.624 26.624-45.056 55.296-45.056 26.624 0 45.056 18.432 45.056 45.056 2.048 26.624-16.384 45.056-45.056 45.056z" fill="#07AF12" p-id="10562"></path><path d="M1024 630.784C1024 485.376 878.592 368.64 716.8 368.64c-172.032 0-309.248 118.784-309.248 262.144 0 145.408 135.168 262.144 309.248 262.144 36.864 0 71.68-8.192 108.544-18.432l100.352 55.296-26.624-90.112c71.68-55.296 124.928-129.024 124.928-208.896z m-407.552-47.104c-18.432 0-36.864-18.432-36.864-36.864s18.432-36.864 36.864-36.864c26.624 0 45.056 18.432 45.056 36.864 0 20.48-18.432 36.864-45.056 36.864z m198.656 0c-18.432 0-36.864-18.432-36.864-36.864s18.432-36.864 36.864-36.864c26.624 0 45.056 18.432 45.056 36.864 0 20.48-18.432 36.864-45.056 36.864z" fill="#07AF12" p-id="10563"></path></svg>