<?xml version="1.0" standalone="no"?><!DOCTYPE svg PUBLIC "-//W3C//DTD SVG 1.1//EN" "http://www.w3.org/Graphics/SVG/1.1/DTD/svg11.dtd"><svg t="1540822029124" class="icon" style="" viewBox="0 0 1024 1024" version="1.1" xmlns="http://www.w3.org/2000/svg" p-id="3326" xmlns:xlink="http://www.w3.org/1999/xlink" width="48" height="48"><defs><style type="text/css"></style></defs><path d="M787.696 942.078H236.31c-21.694 0-39.385 40.96-39.385 40.96V1024H827.08v-40.962c0-22.561-17.69-40.96-39.385-40.96zM905.853 0H118.151C52.921 0 0 55.061 0 122.878V696.32c0 67.834 52.921 122.878 118.151 122.878h275.697v40.961c0 22.578 17.694 40.956 39.385 40.956H590.77c21.693 0 39.387-21.118 39.387-40.956V819.2h275.69c65.232 0 118.153-55.044 118.153-122.878V122.878C1024.006 55.06 971.079 0 905.853 0zM118.151 655.362c-21.693 0-39.379-18.384-39.379-40.962V122.878c0-22.562 17.692-40.957 39.38-40.957h787.703c21.687 0 39.38 18.401 39.38 40.957V614.4c0 22.578-17.692 40.962-39.38 40.962H118.15z m681.083-469.865l-129.69 134.884-90.31-93.922c-8.656-9.038-20.887-13.28-33.08-11.639-12.153 1.7-22.886 9.202-28.962 20.282L400.114 448.16l-48.462-126.036c-4.919-12.78-15.69-22.144-28.654-24.9-13.19-2.782-26.421 1.419-35.767 11.16L169.074 431.258c-15.383 16.004-15.383 41.923 0 57.92 15.386 16.002 40.308 16.002 55.696 0l75.924-78.962 56.576 147.145c5.617 14.578 18.767 24.557 33.845 25.64 0.922 0.057 1.847 0.098 2.73 0.098 14.08 0 27.155-7.821 34.193-20.64l131.963-240.156 81.691 84.959c15.386 15.997 40.31 15.997 55.692 0l157.544-163.844c15.382-15.999 15.382-41.915 0-57.92-15.385-16-40.307-16-55.694-0.002z" fill="" p-id="3327"></path></svg>