<?xml version="1.0" standalone="no"?><!DOCTYPE svg PUBLIC "-//W3C//DTD SVG 1.1//EN" "http://www.w3.org/Graphics/SVG/1.1/DTD/svg11.dtd"><svg t="1540822686506" class="icon" style="" viewBox="0 0 1024 1024" version="1.1" xmlns="http://www.w3.org/2000/svg" p-id="9868" xmlns:xlink="http://www.w3.org/1999/xlink" width="48" height="48"><defs><style type="text/css"></style></defs><path d="M906.27425 379.092991l18.352997-20.068058c55.799864-60.909232 46.478568-160.276357-20.869307-221.938742l-20.360723-18.637476c-67.320245-61.662385-167.153998-62.280462-222.914976-1.372254l-15.977903 17.416671C763.662205 173.492356 859.501994 263.680425 906.27425 379.092991zM117.703237 379.092991c46.731324-115.412566 142.650931-205.599611 261.72898-244.600881L363.533109 117.075439c-55.767118-60.908208-155.64078-60.290131-222.986607 1.372254l-20.288069 18.637476c-67.351967 61.662385-76.704986 161.02951-20.87033 221.938742L117.703237 379.092991zM548.520263 575.205531 342.912465 575.205531 342.912465 512.320295 485.637074 512.320295 485.637074 315.667449 548.520263 315.667449ZM796.438703 812.336276C863.668896 742.673683 905.158846 648.001487 905.158846 543.764448c0-213.417671-173.587524-387.038964-386.999055-387.038964-213.418694 0-387.005194 173.621293-387.005194 387.038964 0 104.237039 41.490973 198.909236 108.721167 268.571828l-86.201268 86.227874c-12.262278 12.30321-12.262278 32.126698 0 44.430932 6.15928 6.112208 14.2127 9.210779 22.201651 9.210779 8.057513 0 16.116049-3.098571 22.270213-9.210779l88.935542-88.939635c64.538899 48.183396 144.526651 76.746942 231.077889 76.746942 86.545098 0 166.537967-28.563546 231.072773-76.746942l88.934518 88.939635c6.160303 6.112208 14.213723 9.210779 22.272259 9.210779 7.988951 0 16.047488-3.098571 22.200628-9.210779 12.261255-12.304234 12.261255-32.127721 0-44.430932L796.438703 812.336276zM193.970248 543.764448c0-178.734754 145.415904-324.154751 324.190567-324.154751 178.768523 0 324.146565 145.421021 324.146565 324.154751 0 178.731684-145.377018 324.147588-324.146565 324.147588C339.385129 867.912036 193.970248 722.496132 193.970248 543.764448z" p-id="9869"></path></svg>