<?xml version="1.0" standalone="no"?><!DOCTYPE svg PUBLIC "-//W3C//DTD SVG 1.1//EN" "http://www.w3.org/Graphics/SVG/1.1/DTD/svg11.dtd"><svg t="1621580243483" class="icon" viewBox="0 0 1024 1024" version="1.1" xmlns="http://www.w3.org/2000/svg" p-id="5644" xmlns:xlink="http://www.w3.org/1999/xlink" width="64" height="64"><defs><style type="text/css"></style></defs><path d="M640 128c16 0 28.8 12.8 32 28.8V192h128c19.2 0 32 12.8 32 32v576c0 19.2-12.8 32-32 32H224c-19.2 0-32-12.8-32-32V224c0-19.2 12.8-32 32-32h128V160c0-19.2 12.8-32 32-32 16 0 28.8 12.8 32 28.8V192h192V160c0-19.2 12.8-32 32-32z m128 288H256v352h512V416zM352 256H256v96h512V256h-96v32c0 19.2-12.8 32-32 32-16 0-28.8-12.8-32-28.8V256h-192v32c0 19.2-12.8 32-32 32-16 0-28.8-12.8-32-28.8V256z" fill="#221814" p-id="5645"></path><path d="M531.2 704c3.2-25.6 6.4-51.2 12.8-70.4 6.4-25.6 19.2-48 32-70.4 9.6-16 25.6-32 41.6-48v-41.6h-185.6v54.4H544c-22.4 28.8-41.6 54.4-51.2 80s-19.2 57.6-22.4 92.8h60.8v3.2z" fill="#C70019" p-id="5646"></path></svg>