<?xml version="1.0" standalone="no"?><!DOCTYPE svg PUBLIC "-//W3C//DTD SVG 1.1//EN" "http://www.w3.org/Graphics/SVG/1.1/DTD/svg11.dtd"><svg t="1621580200130" class="icon" viewBox="0 0 1024 1024" version="1.1" xmlns="http://www.w3.org/2000/svg" p-id="3165" xmlns:xlink="http://www.w3.org/1999/xlink" width="64" height="64"><defs><style type="text/css"></style></defs><path d="M223.46752 621.51168v-0.1536H149.62176c-38.5536 0-69.91872 31.36512-69.91872 69.9136v170.7776c0 38.54848 31.36512 69.9136 69.91872 69.9136h198.00576c38.5536 0 69.9136-31.36512 69.9136-69.9136v-170.7776c0-38.54848-31.36-69.9136-69.9136-69.9136h-75.008v0.1536h-49.152z m124.16 48.99328a20.7872 20.7872 0 0 1 20.76672 20.76672v170.7776a20.7872 20.7872 0 0 1-20.76672 20.76672H149.62176a20.7872 20.7872 0 0 1-20.76672-20.76672v-170.7776a20.79232 20.79232 0 0 1 20.76672-20.76672h198.00576zM541.41952 399.31392v0.01024h69.58592c38.54848 0 69.9136-31.36 69.9136-69.9136V158.63296c0-38.5536-31.36512-69.91872-69.9136-69.91872H412.99968c-38.5536 0-69.91872 31.36512-69.91872 69.91872v170.77248c0 38.5536 31.36512 69.9136 69.91872 69.9136h79.78496v-0.01024h48.63488z m-128.41984-49.13664a20.7872 20.7872 0 0 1-20.77184-20.76672V158.63296a20.79744 20.79744 0 0 1 20.77184-20.77184h198.00576a20.79232 20.79232 0 0 1 20.76672 20.77184v170.77248a20.7872 20.7872 0 0 1-20.76672 20.76672H412.99968zM878.35136 621.35296H803.584v0.1536h-49.65888v-0.1536h-73.5744c-38.5536 0-69.91872 31.36512-69.91872 69.91872v170.77248c0 38.54848 31.36512 69.9136 69.91872 69.9136h198.00064c38.54848 0 69.9136-31.36512 69.9136-69.9136v-170.77248c0-38.5536-31.36512-69.91872-69.9136-69.91872z m20.7616 240.69632a20.7872 20.7872 0 0 1-20.76672 20.76672H680.3456a20.79232 20.79232 0 0 1-20.77184-20.76672v-170.77248a20.79744 20.79744 0 0 1 20.77184-20.77184h198.00064a20.79232 20.79232 0 0 1 20.76672 20.77184v170.77248z" fill="#4E8CEE" p-id="3166"></path><path d="M803.584 621.51168v-0.15872l0.01024-126.62272h-262.17472V399.31392h-48.63488v0.01024l0.19456 95.45216-269.51168-0.04608v126.78144h49.152v-77.63968h481.46432l-0.15872 77.48096v0.15872z" fill="#4E8CEE" p-id="3167"></path><path d="M128.85504 862.04928a20.7872 20.7872 0 0 0 20.77184 20.7616h198.00576a20.7872 20.7872 0 0 0 20.76672-20.7616v-170.77248a20.7872 20.7872 0 0 0-20.76672-20.77184H149.62688a20.79744 20.79744 0 0 0-20.77184 20.77184v170.77248M659.57888 862.04928a20.7872 20.7872 0 0 0 20.77184 20.7616h198.00576a20.7872 20.7872 0 0 0 20.76672-20.7616v-170.77248a20.7872 20.7872 0 0 0-20.76672-20.77184h-198.00576a20.79744 20.79744 0 0 0-20.77184 20.77184v170.77248" fill="#BAD4FF" p-id="3168"></path></svg>