<?xml version="1.0" standalone="no"?><!DOCTYPE svg PUBLIC "-//W3C//DTD SVG 1.1//EN" "http://www.w3.org/Graphics/SVG/1.1/DTD/svg11.dtd"><svg t="1621580183623" class="icon" viewBox="0 0 1024 1024" version="1.1" xmlns="http://www.w3.org/2000/svg" p-id="2322" xmlns:xlink="http://www.w3.org/1999/xlink" width="64" height="64"><defs><style type="text/css"></style></defs><path d="M182.857143 138.971429h724.114286s29.257143 0 51.2 29.257142 7.314286 43.885714 7.314285 43.885715l-438.857143 292.571428-424.228571-270.628571s-14.628571-14.628571-7.314286-43.885714c7.314286-14.628571 21.942857-29.257143 36.571429-43.885715l21.942857-14.628571 29.257143 7.314286z" fill="#F4B1B2" p-id="2323"></path><path d="M526.628571 533.942857c-7.314286 0-7.314286 0-14.628571-7.314286L87.771429 256c-7.314286-7.314286-29.257143-29.257143-21.942858-73.142857 14.628571-21.942857 29.257143-36.571429 43.885715-58.514286l29.257143-21.942857h21.942857l29.257143 7.314286h724.114285c7.314286 0 43.885714 0 73.142857 36.571428s14.628571 65.828571 7.314286 80.457143l-446.171428 292.571429c-14.628571 14.628571-14.628571 14.628571-21.942858 14.628571zM124.342857 212.114286l402.285714 256 416.914286-277.942857s0-7.314286-7.314286-7.314286c-14.628571-14.628571-29.257143-14.628571-29.257142-14.628572H182.857143h-7.314286l-14.628571-7.314285-14.628572 7.314285c-7.314286 7.314286-21.942857 21.942857-29.257143 36.571429 0 0 0 7.314286 7.314286 7.314286z" fill="#D72822" p-id="2324"></path><path d="M899.657143 914.285714H175.542857c-58.514286 0-109.714286-51.2-109.714286-109.714285V219.428571c0-58.514286 51.2-109.714286 109.714286-109.714285h724.114286c58.514286 0 109.714286 51.2 109.714286 109.714285v585.142858c0 58.514286-51.2 109.714286-109.714286 109.714285zM175.542857 168.228571c-29.257143 0-51.2 21.942857-51.2 51.2v585.142858c0 29.257143 21.942857 51.2 51.2 51.2h724.114286c29.257143 0 51.2-21.942857 51.2-51.2V219.428571c0-29.257143-21.942857-51.2-51.2-51.2H175.542857z" fill="#D72822" p-id="2325"></path><path d="M972.8 863.085714c-7.314286 0-14.628571 0-21.942857-7.314285L629.028571 453.485714c-7.314286-7.314286-7.314286-29.257143 7.314286-36.571428 14.628571-7.314286 29.257143-7.314286 36.571429 7.314285l321.828571 394.971429c7.314286 14.628571 7.314286 29.257143-7.314286 36.571429 0 0-7.314286 7.314286-14.628571 7.314285z" fill="#D72822" p-id="2326"></path><path d="M117.028571 863.085714c-7.314286 0-14.628571 0-14.628571-7.314285-14.628571-7.314286-14.628571-29.257143-7.314286-36.571429l299.885715-394.971429c7.314286-14.628571 29.257143-14.628571 36.571428-7.314285 14.628571 7.314286 14.628571 29.257143 7.314286 36.571428l-299.885714 394.971429c-7.314286 7.314286-14.628571 14.628571-21.942858 14.628571z" fill="#D72822" p-id="2327"></path></svg>