<?xml version="1.0" standalone="no"?><!DOCTYPE svg PUBLIC "-//W3C//DTD SVG 1.1//EN" "http://www.w3.org/Graphics/SVG/1.1/DTD/svg11.dtd"><svg t="1621580119848" class="icon" viewBox="0 0 1024 1024" version="1.1" xmlns="http://www.w3.org/2000/svg" p-id="659" width="64" height="64" xmlns:xlink="http://www.w3.org/1999/xlink"><defs><style type="text/css"></style></defs><path d="M686.320211 188.771341 928.695401 188.771341c12.756535 0 25.51307 8.504698 25.51307 21.261233l0 4.251837L954.208471 801.088094c0 17.008372-12.756535 25.51307-25.51307 25.51307l0 0L686.320211 826.601164l0-46.774303 216.862119 0L903.18233 235.545644 686.320211 235.545644 686.320211 188.771341 686.320211 188.771341zM686.320211 660.765185l144.574746 0 0 0c12.756535 0 21.261233-8.504698 21.261233-17.008372L852.15619 350.35446l0 0c0-8.504698-8.504698-21.261233-21.261233-21.261233L686.320211 329.093227l0 42.522466 123.313513 0 0 250.879887L686.320211 622.49558 686.320211 660.765185zM329.135182 188.771341l357.185029 0 0 46.774303-357.185029 0L329.135182 188.771341 329.135182 188.771341zM686.320211 826.601164l-357.185029 0 0-46.774303 357.185029 0L686.320211 826.601164 686.320211 826.601164zM686.320211 329.09425l0 42.522466L563.006697 371.616716l0 250.879887 123.313513 0 0 38.269605L541.745465 660.766209c-12.756535 0-21.261233-8.504698-21.261233-17.008372L520.484232 350.35446c0-8.504698 8.504698-21.261233 21.261233-21.261233L686.320211 329.093227 686.320211 329.09425zM329.135182 660.765185l0-38.269605 97.800443 0 0-25.51307 0 0 0 0c0-4.251837-4.251837-12.756535-12.756535-21.261233-8.504698-4.251837-25.51307-8.504698-38.269605-8.504698l0 0 0 0-46.774303 0 0-51.02614 0 0 0 0c21.261233 0 38.269605-8.504698 55.279001-21.261233 12.756535-12.756535 21.261233-34.017768 21.261233-55.279001l0 0 0 0 0 0 0 0c0-21.261233-8.504698-42.522466-21.261233-55.279001-17.008372-17.008372-34.017768-25.51307-55.279001-25.51307l0 0 0 0 0-38.269605 0 0 0 0c34.017768 0 63.782675 12.756535 85.043908 34.017768 21.261233 21.261233 34.017768 51.02614 34.017768 85.043908l0 0 0 0 0 0 0 0c0 34.017768-12.756535 63.782675-34.017768 85.043908-4.251837 0-4.251837 4.251837-8.504698 4.251837 12.756535 4.251837 25.51307 8.504698 34.017768 17.008372 17.008372 12.756535 29.764907 29.765931 29.764907 51.02614l0 0 0 0 0 46.774303 0 17.008372-21.261233 0L329.135182 660.763139zM91.012853 188.771341l238.123352 0 0 46.774303L116.525923 235.545644l0 544.281217 212.610282 0 0 46.774303-238.123352 0c-12.756535 0-25.51307-8.504698-25.51307-25.51307L65.499783 210.032574C65.499783 197.276039 78.256318 188.771341 91.012853 188.771341L91.012853 188.771341zM329.135182 320.589552 329.135182 320.589552 329.135182 320.589552 329.135182 320.589552c-34.017768 0-63.782675 12.756535-85.043908 34.017768-21.261233 21.261233-38.269605 51.02614-38.269605 85.043908l0 0 0 0 0 0 0 0c0 34.017768 17.008372 63.782675 38.269605 85.043908 0 0 0 4.251837 4.251837 4.251837-12.756535 4.251837-21.261233 8.504698-29.764907 17.008372l0 0c-21.261233 12.756535-29.764907 29.765931-29.764907 51.02614l0 0 0 0 0 46.774303 0 17.008372 21.261233 0 119.061676 0 0-38.269605-97.800443 0 0-25.51307 0 0 0 0c0-4.251837 4.251837-12.756535 12.756535-21.261233l0 0c8.504698-4.251837 21.261233-8.504698 34.017768-8.504698l0 0 0 0 51.02614 0 0-51.02614 0 0 0 0 0 0c-21.261233 0-42.522466-8.504698-55.279001-21.261233-17.008372-12.756535-25.51307-34.017768-25.51307-55.279001l0 0 0 0 0 0 0 0c0-21.261233 8.504698-42.522466 25.51307-55.279001 12.756535-17.008372 34.017768-25.51307 55.279001-25.51307l0 0 0 0 0 0L329.136206 320.589552z" p-id="660"></path></svg>