<?xml version="1.0" standalone="no"?><!DOCTYPE svg PUBLIC "-//W3C//DTD SVG 1.1//EN" "http://www.w3.org/Graphics/SVG/1.1/DTD/svg11.dtd"><svg t="1576319715134" class="icon" viewBox="0 0 1024 1024" version="1.1" xmlns="http://www.w3.org/2000/svg" p-id="1751" xmlns:xlink="http://www.w3.org/1999/xlink" width="200" height="200"><defs><style type="text/css"></style></defs><path d="M947.2 851.2H76.8c-9.6 0-16-6.4-16-16V233.6c0-9.6 6.4-16 16-16h867.2c9.6 0 16 6.4 16 16V832c3.2 9.6-6.4 19.2-12.8 19.2z" fill="#EDEDED" p-id="1752"></path><path d="M963.2 368H60.8V233.6c0-9.6 6.4-16 16-16h867.2c9.6 0 16 6.4 16 16v134.4zM313.6 617.6c32-16 54.4-51.2 54.4-92.8 0-57.6-44.8-105.6-99.2-105.6-54.4 0-99.2 48-99.2 105.6 0 41.6 22.4 76.8 54.4 92.8-64 19.2-112 83.2-112 156.8v3.2h313.6v-3.2c0-73.6-48-137.6-112-156.8z" fill="#5B8FD9" p-id="1753"></path><path d="M556.8 451.2H480c-3.2 0-3.2 3.2-3.2 3.2v73.6c0 3.2 3.2 3.2 3.2 3.2h76.8c3.2 0 3.2-3.2 3.2-3.2v-73.6s0-3.2-3.2-3.2z m-3.2 19.2l-32 44.8c0 3.2-3.2 3.2-6.4 0l-22.4-16c-3.2 0-3.2-3.2 0-6.4 0-3.2 3.2-3.2 6.4 0l19.2 12.8 28.8-41.6c0-3.2 3.2-3.2 6.4 0v6.4z" fill="#68D279" p-id="1754"></path><path d="M553.6 656H480c-3.2 0-3.2-3.2-3.2-3.2v-70.4c0-3.2 3.2-3.2 3.2-3.2h70.4c3.2 0 3.2 3.2 3.2 3.2v70.4c3.2 0 0 3.2 0 3.2z m0-73.6h-70.4v70.4h70.4v-70.4zM876.8 518.4h-243.2c-12.8 0-25.6-9.6-25.6-25.6v-3.2c0-12.8 9.6-22.4 25.6-22.4h243.2c12.8 0 22.4 9.6 22.4 22.4v3.2c3.2 12.8-6.4 25.6-22.4 25.6zM876.8 640h-243.2c-12.8 0-25.6-9.6-25.6-22.4v-3.2c0-12.8 9.6-25.6 25.6-25.6h243.2c12.8 0 22.4 9.6 22.4 25.6v3.2c3.2 12.8-6.4 22.4-22.4 22.4zM553.6 777.6H480c-3.2 0-3.2-3.2-3.2-3.2V704c0-3.2 3.2-3.2 3.2-3.2h70.4c3.2 0 3.2 3.2 3.2 3.2v70.4c3.2 3.2 0 3.2 0 3.2z m0-73.6H480v70.4h70.4V704zM876.8 764.8h-243.2c-12.8 0-25.6-9.6-25.6-25.6V736c0-12.8 9.6-22.4 25.6-22.4h243.2c12.8 0 22.4 9.6 22.4 22.4v3.2c3.2 12.8-6.4 25.6-22.4 25.6z" fill="#5B8FD9" p-id="1755"></path></svg>