<?xml version="1.0" standalone="no"?><!DOCTYPE svg PUBLIC "-//W3C//DTD SVG 1.1//EN" "http://www.w3.org/Graphics/SVG/1.1/DTD/svg11.dtd"><svg t="1576320577539" class="icon" viewBox="0 0 1024 1024" version="1.1" xmlns="http://www.w3.org/2000/svg" p-id="30959" xmlns:xlink="http://www.w3.org/1999/xlink" width="200" height="200"><defs><style type="text/css"></style></defs><path d="M1024 806.4V704s-70.4-12.8-70.4-19.2c0-6.4 0-12.8-6.4-12.8 6.4-12.8 44.8-44.8 44.8-44.8l-76.8-102.4s-51.2 38.4-64 44.8c-6.4 0-12.8-6.4-19.2-6.4-6.4 0-25.6-64-25.6-64H704s-12.8 64-25.6 64c-6.4 0-12.8 6.4-19.2 6.4-12.8-6.4-64-44.8-64-44.8L524.8 627.2s38.4 38.4 38.4 51.2c0 6.4-6.4 6.4-6.4 12.8-19.2 6.4-64 12.8-64 12.8v102.4s57.6 12.8 64 19.2c0 6.4 6.4 12.8 6.4 19.2-12.8 12.8-44.8 38.4-44.8 38.4l76.8 102.4s64-38.4 70.4-44.8c6.4 0 12.8 6.4 12.8 6.4 6.4 0 19.2 64 19.2 64h102.4s6.4-57.6 12.8-57.6 12.8-6.4 19.2-6.4c6.4 6.4 51.2 44.8 51.2 44.8l102.4-102.4s-38.4-25.6-51.2-38.4c0-6.4 6.4-12.8 6.4-19.2 19.2-12.8 83.2-25.6 83.2-25.6z m-262.4 76.8c-70.4 0-128-57.6-128-128s57.6-128 128-128 128 57.6 128 128-57.6 128-128 128zM428.8 492.8c121.6 0 243.2-115.2 243.2-236.8C672 134.4 556.8 12.8 435.2 12.8 313.6 12.8 192 140.8 192 262.4s115.2 230.4 236.8 230.4z m51.2 51.2H243.2c-64 0-153.6 32-179.2 121.6-32 89.6-32 89.6-57.6 179.2-12.8 44.8 204.8 70.4 422.4 70.4 70.4 0 25.6-57.6 25.6-128-6.4-172.8 134.4-243.2 25.6-243.2z" fill="#409EFF" p-id="30960"></path></svg>