<?xml version="1.0" standalone="no"?><!DOCTYPE svg PUBLIC "-//W3C//DTD SVG 1.1//EN" "http://www.w3.org/Graphics/SVG/1.1/DTD/svg11.dtd"><svg t="1576320500202" class="icon" viewBox="0 0 1024 1024" version="1.1" xmlns="http://www.w3.org/2000/svg" p-id="26961" xmlns:xlink="http://www.w3.org/1999/xlink" width="200" height="200"><defs><style type="text/css"></style></defs><path d="M959.400375 541.741412a41.765896 41.765896 0 0 1-14.327046 6.076202l-118.581886 29.613492-10.937164 33.642973a325.236727 325.236727 0 0 1-19.188008 45.667458l-15.990006 31.532292 62.680824 104.510681c3.965522 6.396002 5.820362 12.088445 6.396003 15.478326l-42.085697 41.957776a49.696939 49.696939 0 0 1-10.873204-4.477202l-105.278201-67.158026-32.747533 16.949407c-15.798126 8.186883-31.980012 14.966646-48.097939 20.211368L575.640225 827.003123l-26.41549 119.029607c-1.21524 6.396002-4.605122 11.512804-6.907683 13.367645h-57.564023a41.893816 41.893816 0 0 1-6.140162-14.327046l-29.421612-117.686446-34.026733-10.873204a314.171643 314.171643 0 0 1-52.12742-21.874329l-32.875453-17.333166-105.342161 67.158026a24.112929 24.112929 0 0 1-13.047845 4.477202l-41.957777-40.806496a42.277577 42.277577 0 0 1 5.756403-14.327046l65.431105-109.051843-15.542286-31.340412a314.939163 314.939163 0 0 1-17.525047-42.277576l-11.001124-33.642973-117.430606-29.421612A45.283698 45.283698 0 0 1 63.960025 541.741412v-59.482824l0.12792 0.06396c1.08732 0 6.396002-3.709681 10.745284-4.477201l120.628607-26.735291 11.065085-35.305934c4.477202-14.327046 10.681324-29.293691 18.804247-45.731417l15.542286-31.340413L176.145909 230.89569a45.411618 45.411618 0 0 1-6.396003-15.542286l42.021737-42.021736c4.093442 1.2792 8.698563 2.942161 10.873204 4.477201l107.260962 68.437227 32.875453-17.397127c16.821487-8.890443 34.282573-16.245846 51.80762-21.810368l34.026733-10.873204 29.165772-116.663086A45.411618 45.411618 0 0 1 484.177389 63.960025h59.482823c-0.44772 0.6396 3.709681 6.204122 4.477202 10.873204l26.863211 121.332168 34.858213 11.256964c16.373766 5.244722 32.747533 12.152405 48.673579 20.467208l32.747533 16.949407 103.10356-65.686946a23.985009 23.985009 0 0 1 13.111805-4.541162l41.957777 40.742536a42.213616 42.213616 0 0 1-5.820362 14.454966L780.312305 335.150531l16.181886 31.596252c8.698563 17.013367 15.350406 33.003373 20.275328 48.865459l11.065084 35.305934 118.198127 26.22361c7.163523 1.343161 12.728045 5.500562 13.879325 7.739163L959.400375 541.677452z m0.51168-126.96065l-82.060712-18.164647a377.364147 377.364147 0 0 0-24.43273-58.907183l44.452218-74.001749c16.565646-26.47945 24.94441-65.431106 0-90.439475l-45.283698-45.219738c-24.94441-24.94441-67.158026-20.467208-92.550156-2.814241l-72.018988 45.859338a381.841349 381.841349 0 0 0-58.459463-24.56065L611.138039 63.448345C605.637477 33.003373 578.966146 0 543.660212 0h-63.960025c-35.305934 0-56.924422 33.451093-63.960025 63.960025l-20.467208 82.060712a382.73679 382.73679 0 0 0-62.361024 26.22361l-73.745909-47.010618c-25.45609-17.652967-67.605746-22.130169-92.614116 2.814241l-45.219738 45.219738c-24.94441 24.94441-16.629606 63.960025 0 90.439475l46.690819 77.90331a380.370269 380.370269 0 0 0-22.513929 55.005622l-82.060712 18.164647C33.003373 420.281324 0 446.952655 0 482.258588v63.960025c0 35.305934 33.451093 56.924422 63.960025 63.960025l83.148032 20.787008c5.756402 17.589007 12.855965 34.538413 20.978889 50.91218l-46.754779 77.967271c-16.629606 26.47945-24.94441 65.431106 0 90.439475l45.219738 45.219738c24.94441 24.94441 67.158026 20.467208 92.614116 2.814241l73.937789-47.074578c19.955528 10.489444 40.870456 19.379888 62.680825 26.28757l20.467208 81.868832c7.035603 30.508932 28.654091 63.960025 63.960025 63.960025h63.960025c35.305934 0 61.977264-33.003373 67.413866-63.448345l18.548407-83.275953c20.019488-6.523923 39.271455-14.710806 57.755903-24.304809l72.146908 46.051218c25.45609 17.589007 67.605746 22.130169 92.550156-2.878201l45.283698-45.219738c24.94441-24.94441 16.565646-63.960025 0-90.439475l-44.452218-74.065709c8.954403-17.589007 16.629606-35.817614 22.897689-54.813742L959.400375 610.178638c30.508932-7.035603 63.960025-28.654091 63.960025-63.960025v-63.960025c0-35.305934-33.003373-61.977264-63.448345-67.477826z" fill="#5584FF" p-id="26962"></path><path d="M511.6802 383.76015c-70.547908 0-127.92005 57.372142-127.92005 127.92005s57.372142 127.92005 127.92005 127.92005 127.92005-57.372142 127.92005-127.92005-57.372142-127.92005-127.92005-127.92005m0.44772 320.119925A192.647595 192.647595 0 0 1 319.480325 511.6802a192.647595 192.647595 0 0 1 385.23123 0 192.647595 192.647595 0 0 1-192.583635 192.199875" fill="#5584FF" p-id="26963"></path></svg>