<?xml version="1.0" standalone="no"?><!DOCTYPE svg PUBLIC "-//W3C//DTD SVG 1.1//EN" "http://www.w3.org/Graphics/SVG/1.1/DTD/svg11.dtd"><svg t="1648102180612" class="icon" viewBox="0 0 1024 1024" version="1.1" xmlns="http://www.w3.org/2000/svg" p-id="11803" xmlns:xlink="http://www.w3.org/1999/xlink" width="48" height="48"><defs><style type="text/css"></style></defs><path d="M136.3 410.2h70v150.2h-70zM206.3 851.3V733.8h-70v117.5c0 40.7 31.5 73.9 70.2 73.9h206.1v-70H207.5c-0.5-0.6-1.2-1.9-1.2-3.9zM206.3 139c0-2 0.7-3.3 1.1-3.9h619.8c0.5 0.6 1.1 1.8 1.1 3.9v151.1h70V139c0-40.7-31.5-73.9-70.2-73.9H206.5c-38.7 0-70.2 33.1-70.2 73.9v97.9h70V139zM886.8 677.2c-20-20-43-35.9-68-47.2 19.2-22.2 30.9-51.2 30.9-82.8 0-69.9-56.8-126.7-126.7-126.7s-126.7 56.8-126.7 126.7c0 31.6 11.7 60.6 30.9 82.8-25 11.4-48 27.2-68 47.2-43.8 43.8-67.9 101.9-67.9 163.8 0 6.1 0.2 12.2 0.7 18.2l69.8-5.5c-0.3-4.2-0.5-8.5-0.5-12.7 0-89.1 72.5-161.6 161.6-161.6S884.6 751.9 884.6 841c0 4.3-0.2 8.6-0.5 12.7l69.8 5.5c0.5-6 0.7-12.1 0.7-18.2 0-61.9-24.1-120-67.8-163.8zM723 490.5c31.3 0 56.7 25.4 56.7 56.7s-25.4 56.7-56.7 56.7-56.7-25.4-56.7-56.7 25.4-56.7 56.7-56.7zM93.9 288.5h154.8v70H93.9zM93.9 612.1h154.8v70H93.9z" p-id="11804"></path></svg>