<?xml version="1.0" standalone="no"?><!DOCTYPE svg PUBLIC "-//W3C//DTD SVG 1.1//EN" "http://www.w3.org/Graphics/SVG/1.1/DTD/svg11.dtd"><svg t="1576320201223" class="icon" viewBox="0 0 1024 1024" version="1.1" xmlns="http://www.w3.org/2000/svg" p-id="19255" xmlns:xlink="http://www.w3.org/1999/xlink" width="200" height="200"><defs><style type="text/css"></style></defs><path d="M102.4 0h153.6v1024H102.4A102.4 102.4 0 0 1 0 921.6V102.4A102.4 102.4 0 0 1 102.4 0z" fill="#E9BE35" p-id="19256"></path><path d="M256 0h665.6a102.4 102.4 0 0 1 102.4 102.4v819.2a102.4 102.4 0 0 1-102.4 102.4H256V0z" fill="#FFCE33" p-id="19257"></path><path d="M225.28 0h10.24v1024h-10.24z" fill="#F4D571" p-id="19258"></path><path d="M128 808.96h757.76c93.31712-9.28768 138.24-122.88 138.24-122.88s0.9216 192.57344 0 194.56c-52.224 112.13824-63.68256 93.48096-138.24 112.64h-757.76A87.04 87.04 0 0 1 40.96 906.24v-10.24a87.04 87.04 0 0 1 87.04-87.04z" fill="#DBDADA" p-id="19259"></path><path d="M127.91808 833.536h757.0432C995.98336 829.93152 1024 686.08 1024 686.08s0 207.872-0.9216 209.58208c-52.224 97.18784-63.63136 81.01888-138.11712 97.61792h-757.0432C79.89248 993.28 40.96 959.488 40.96 917.84192v-8.86784C40.96 867.328 79.872 833.536 127.91808 833.536z" fill="#FFFFFF" p-id="19260"></path><path d="M378.88 153.6h501.76v245.76H378.88z" fill="#C47300" p-id="19261"></path><path d="M399.36 174.08h460.8v204.8H399.36z" fill="#FFFFFF" p-id="19262"></path><path d="M450.56 204.8h112.64v143.36H450.56z" fill="#FF6029" p-id="19263"></path><path d="M614.4 204.8h194.56v20.48H614.4v-20.48z m0 61.44h194.56v20.48H614.4v-20.48z m0 61.44h194.56v20.48H614.4v-20.48z" fill="#FF6029" p-id="19264"></path><path d="M296.96 829.44h204.8v194.56L399.36 921.6l-102.4 102.4V829.44z" fill="#FF6029" p-id="19265"></path></svg>