<?xml version="1.0" standalone="no"?><!DOCTYPE svg PUBLIC "-//W3C//DTD SVG 1.1//EN" "http://www.w3.org/Graphics/SVG/1.1/DTD/svg11.dtd"><svg t="1577285526535" class="icon" viewBox="0 0 1024 1024" version="1.1" xmlns="http://www.w3.org/2000/svg" p-id="4555" xmlns:xlink="http://www.w3.org/1999/xlink" width="200" height="200"><defs><style type="text/css"></style></defs><path d="M871.552 817.1776c-3.2256-0.4608-0.512-4.8896-4.736-6.4256l0 0 0-1.7408-0.9216-0.9472 0 0c-1.5104-1.024-3.4816-0.5376-5.4784-1.536 0-1.4848-1.2288-2.432-1.7152-4.4032-1.9456 0-1.5104-2.2528-2.4576-3.7632-0.9984-0.9472-2.5088-2.4832-3.9424-3.9168 0.4864-3.2256 2.944-7.168 2.432-10.88-0.4864-1.4848-0.4864-3.5072-1.9456-4.5056 0.9728-5.6576 2.9184-13.824 6.4256-18.3296 0-1.9712-0.512-5.12 1.2288-7.6032l0 0 2.9952-1.536 0 0c0.9728-0.9984 0.9728-3.7376 1.4848-6.144 0.9984-2.4832 5.2224-2.9696 6.144-6.7072 1.9968-0.512 3.9936-0.9984 5.504-2.9696 1.6896 0 4.1984-1.536 6.144-1.536 1.4848 1.536 1.9712 3.5072 5.2224 3.9936 3.4048 12.3392 0 27.4688-0.512 41.344-3.7376 6.144-1.2544 14.8224-6.6816 20.7872-1.4848 3.2256-0.512 7.1424-0.9984 10.88-0.4864 2.4832-0.9728 4.4544-3.7376 5.4784C874.5472 816.1792 873.5488 817.664 871.552 817.1776L871.552 817.1776 871.552 817.1776 871.552 817.1776zM637.7216 915.9168c-0.9728-1.024-3.4304-1.536-5.888-2.4832l0 0-0.9984-1.536 0 0c-1.7408-0.4608-4.224 0-6.1696-1.4848l0 0-1.536-1.5104 0 0c-0.4864-1.6896 0-3.6864-1.4592-5.6576l0 0-1.2544-0.9984 0 0c0-2.9952-1.4848-5.6576-0.9728-9.1392 0.512-1.5104 3.2-2.4832 2.688-5.2224 4.4544-3.4816 9.1648-7.6544 15.104-11.1104 3.7376 0 5.7088-0.9984 9.1648-2.5344 2.2016 0 2.2016 1.536 4.6848 2.0736l0 0 2.9952-0.5376 1.4592-2.5088-0.9728-1.2288 0 0c-1.5104-0.4864-3.9168-0.9728-5.9392-1.9712-1.2288-1.4848-3.2-2.4832-4.1984-4.4544 0-3.2256-2.4832-5.2224-2.944-9.1136l0 0-1.536-1.536 0 0c-0.4864-1.7408-0.4864-4.1728-0.9728-6.144l0 0-0.7168-0.9984 0 0c-2.4832-0.512-4.4544-0.512-7.424-1.024-1.2288-1.2288-3.2256-1.6896-4.224-3.712-2.9184-0.9728-7.1424-1.4848-10.6496-1.4848-3.4304 0-2.4832 2.9696-5.6576 3.9424-2.9952 0.768-5.4784 0.768-9.1904 0.768-3.9168-1.2544-6.4-2.7392-10.624-4.736-1.9456 0-5.1712 0.512-7.68-0.9984-1.9712-2.944-5.4016-5.1968-8.1152-8.6272-1.024-0.5376-1.024-2.5088-1.9968-4.7104-0.4864-3.4816 1.4848-7.4752 0.512-11.648l0 0-1.5104-0.9472 0 0c-1.4848 0-4.224 0.4608-6.1696 0.4608-5.4528-1.9712-11.6224-4.4544-16.8192-7.68-0.4864 2.5088-4.4288 3.7376-5.4528 6.7072-1.4592 1.9456-5.1712 2.944-6.7072 6.144-2.4832 2.0224-7.1424 1.024-10.624 1.024-1.4848 0.512-1.9968 1.9712-4.7104 2.4832-7.168-2.4832-15.0784 0-22.7584-2.9696-1.6896 0-3.6864 0.512-4.6848 1.5104l0 0-1.5104 2.944 0 0c-1.9712 0-5.1968 0-7.6544-0.4864-1.9712 0.4864-4.4544 0-6.1952 1.9712-1.024 7.1424 3.2 15.7952-1.4848 22.528-2.4576-0.512-2.944 1.92-5.9136 2.4576-1.7408 0-2.7136-0.5376-4.7104-0.9728-2.5088-1.4848-1.5104-4.4544-5.1968-5.2224-0.512-2.4832-1.4848-4.4544-2.4832-7.4496l0 0-1.024-0.9984 0 0c-2.9952 0-1.9712 3.5072-5.1712 4.5056-1.9968 0-4.9664 0.512-7.4496-0.9984-0.512-0.9728-2.7392-2.944-4.224-4.1728-0.9728-0.5376-0.9728-3.5072-2.432-4.4544-0.9984-0.5376-2.4832-1.024-2.9696-3.5072-0.7424-0.6656-2.7392-1.6896-4.736-1.6896-0.9984-1.0496-2.432-1.5104-3.9168-2.9696-0.768-1.4848-2.2272-1.9712-2.7392-4.736 0-2.9696 0.512-5.4272 0.512-9.1136 2.688-1.024 0.4864-3.5072 2.2272-5.9136-1.2544-1.536-3.2256-1.9712-5.7088-3.2768-1.024-2.4832-3.4816-3.4304-4.736-6.9376 0-3.2-0.512-5.6832-0.512-9.1136l0 0-1.408-3.2 0 0c-4.5056-2.5344-11.1616 0.512-16.8704-1.024l0 0-1.9968-1.5104 0 0c-1.4336-6.144-1.4336-13.3376-0.9472-19.7632 0.4608-2.7392 3.9168-2.2528 4.9152-5.1968l0 0L399.4368 751.104l0 0c2.2272-2.4832 4.224-7.1424 8.6528-8.6272 1.7152-1.9712 3.7376-4.736 6.7072-6.1952 1.4592-0.9472 1.4592-3.456 1.4592-6.1952 1.2288-1.4592 2.2528-2.9696 3.2256-5.9392-0.4608-3.1744 0.4864-5.6576 0.9728-9.1136 1.5104-5.1968 0-7.168 0-10.1376l0 0-1.9712-2.7392-3.2-0.9216 0 0c-2.4832-4.992-4.4544-9.6768-7.1936-16.384-1.4848-0.4864-2.5088 0-4.4288-0.4864-1.024 1.4848-4.224 4.7104-5.2224 7.168-2.9952 2.4832-8.1408 0.9472-12.1344 1.4848-5.7088-1.9712-9.1136-6.6816-13.8496-9.6512-1.5104 0-3.9424 0-5.9136 0l0 0-3.712 2.4832 0 0c-2.0224 0-2.9952 1.6896-5.9136 2.2016l0 0-1.7408 0-2.9952 1.024 0 0c-1.9968 1.4592-4.4544 3.4304-7.6544 4.9408-2.4832 3.7376-8.192 3.2-13.1328 5.1712l0 0-0.9728 1.4848 0 0c-1.7408 0.5376-2.2272 1.9712-4.736 2.4832l0 0-2.944 0 0 0c-1.5104 0.512-1.9968 2.2528-4.7104 2.7392-5.4528 0.9728-12.1344 1.4848-18.304-0.512-0.512-0.512-2.4832-2.7392-3.4816-3.7376-0.9728-2.4832 0-4.4544-0.4864-7.6544-1.9968-2.4832-5.7088-5.4272-8.6528-6.9376-0.9984-2.2528-2.7136-3.7376-5.2224-5.2224l0 0-1.4848-2.944-2.9696-1.7408-1.4848-2.9184 0 0c-2.688-1.536-7.168-2.0224-10.88-2.9696l0 0-2.9696-2.7648 0 0c-2.9952 0-5.7088 0-9.1392 0-1.9968 2.2528-5.2224 3.7376-6.7072 6.144 0 2.5344-1.5104 4.2752-2.5088 7.2192-0.4864 0.9984-2.432 0.9984-4.6592 1.9968-1.5104 0-3.9936-0.9984-5.9648-1.5104-3.6864-3.8912 0.4864-11.6224-3.6864-16.3584-2.4832 0.5376-4.48 2.4832-7.68 1.9712-1.9456-0.4608-2.4576-3.4304-4.9408-4.4032-2.5088 0-4.736 0-7.68 0l0 0-4.6848-2.4832 0 0c-4.48-0.9984-10.1376-3.7632-15.104-4.736-1.9968 0-2.7392-1.536-4.7104-2.4832-2.944 0-7.1424 0-10.6496-1.4848-0.9728-1.7408-1.9456-3.2-2.944-6.1952-2.7392-0.512-4.736-1.9712-7.7056-2.9696-0.9984-1.2544-1.4336-1.6896-2.432-3.6864 0-1.5104 0-2.4832-0.7424-4.5056C158.208 634.112 155.7248 633.6 153.2672 632.3968l0 0-1.7408-2.9696-2.944-1.5872 0 0c-1.4848-1.4336-0.9984-5.12-1.4848-7.6544l0 0-2.5088-2.4576-3.2256-1.9712 0 0c-1.9712-1.2288-5.4016-1.2288-7.6288-3.2-5.9648-11.1616-13.5936-20.2752-23.2704-28.4416-1.4848 0-2.5088 0-4.7104 0.4608C103.7568 586.0608 102.8096 588.5184 99.84 589.312c-1.024-1.2288-3.7376-1.2288-5.7344-2.7392-2.432-4.4544-4.6848-8.1408-8.6272-13.1328-1.5104-1.92-1.9968-5.632-3.9936-7.6544-2.688-2.4832-6.144-6.6816-9.1392-10.5984l0 0-3.2256-0.5376 0 0c-1.4592-1.664-2.4576-4.6592-5.4272-5.6832-2.2272-9.1648 0-17.8176-1.2288-27.4688 1.2288-1.4592 0-4.224 1.2288-6.144 1.9968-1.0496 2.9696-2.5088 5.9648-3.4816l0 0 1.4592 0 0 0c1.7152 1.4336 2.2272 3.4816 5.1968 3.968l0 0 1.5104-2.048 0 0c0-8.6272-1.9968-15.7952-2.9696-22.4768 1.4592-2.4576 2.9696-4.4544 4.4544-7.9104-3.9424-6.1696-5.9392-15.8464-5.9392-24.4992 0-3.712-4.224 0-5.6576-3.2512l0 0L64.6912 455.6544l0 0c-4.736-2.432-8.1664-7.9104-12.3904-12.5696-2.4832-0.512-2.9696-1.9968-5.9648-2.9952l0 0-1.1776-0.9984 0 0c-2.4832-7.168 0-15.3344-2.4832-22.9888-2.4832-1.024-2.9696-4.6848-5.4528-6.7072-3.2-1.5104-4.6848-3.456-8.1664-5.9136-0.4864-1.7408-0.4864-4.224 0-6.1952 1.9968-1.9712 4.9664-2.4832 8.6784-4.224l0 0 0.9984-0.9728 0 0c0-1.5104 0-3.9936 0-5.9136 0.9984-2.7392 2.4832-4.224 3.456-7.7056 0-1.4848-0.4864-4.1728-0.4864-6.1696-0.512-1.4848-0.512-3.456-1.9968-4.48-3.7376-1.7408-6.656 0-10.6496-2.2272-0.9728-0.9472-1.7152-2.9952-3.712-3.9168l0 0-0.9984-3.2512 0.9984-2.944 0 0c1.4848-1.5104 3.2256-2.4576 4.736-4.9408-1.4848-4.224-1.024-7.7056 0.512-12.3648 1.9712 0 2.4832-1.4848 4.4032-2.5088l0 0 0.512-1.4848 0 0c2.7392-1.5104 5.7088-2.7392 8.704-6.1696 4.1984-1.5104 7.6544-0.512 12.3648-0.9984l0 0 2.944-1.5104 0 0c4.224 0 7.7056 1.9968 12.1344 1.5104 2.2272 0 4.224 1.9712 5.2224 3.9168 2.4832 0.9728 4.6848 0 7.6544 0.4864 2.9952-1.4592 3.9936-3.4048 7.68-4.4032l0 0 1.4848-2.9952 0 0c0.4864-1.2288 2.4832-1.2288 4.48-2.2528 3.2 0 7.6544 0.512 10.368-2.4832 9.1648-2.944 17.8176 0 27.4944 1.024 3.9424-1.4848 8.6528-3.9424 13.5936-3.4816l0 0 2.7136-1.4848 0 0c1.9968-4.224 5.9392-9.1136 4.9664-15.3344l0 0 2.9952-2.5088 0 0c1.7152 0 1.7152-2.2272 3.6864-3.6864l0 0 1.4848 0L166.4 292.9152l0 0c0.512-10.6496 0.512-22.2976 1.024-33.6896 2.688-0.9728 0.4864-3.456 2.2272-5.9392 2.4832 0 2.4832-3.2 5.4016-3.7376 7.1936 1.024 16.3584-2.944 22.5024 3.2512 3.9936 0 7.7056 0 12.1344 0l0 0 1.4848-2.2272 0 0c0.512-3.456 0-6.4256 1.5104-10.6496l0 0 2.7136-1.9712L216.3712 235.008l0 0c0.512-1.2288 1.9968-2.7392 3.4816-3.712 0.9472-2.0224 1.9456-4.9664 3.712-7.6544C226.048 223.104 225.024 220.1344 227.0208 218.1632c2.4832-0.512 2.944-2.7392 5.7088-3.712 3.9168 0 6.4256 3.712 11.5968 4.6592 1.9712 0.512 2.9696 3.4304 6.1952 3.9936l0 0 1.4592 0 5.4272 1.4592 0 0c3.2512 0 5.7344-0.4608 9.1648-1.9968 1.7152-0.4608 1.2288-4.4032 3.2-5.632-0.512-3.9424-0.9984-9.6512 1.9712-13.6192 0.512-1.024 4.224-0.512 4.224-2.944 1.4848-0.512 3.9424 0 5.9136-0.512 2.5088-0.7168 4.224-1.2288 5.7344-3.2l0 0 0.4864-1.5104 0 0c1.4592-1.4592 1.4592-2.9696 3.4304-4.4544 7.2192-1.6896 15.872-5.1968 23.0144-2.2016 2.4832 5.1968-0.512 12.8256 1.9712 19.2768 1.9968 1.2544 3.7376 2.7392 5.248 5.2224 1.92 0.512 3.4304 1.92 4.4288 4.6848 1.4848 0.9984 3.2256 1.9712 6.2208 2.9696 1.4336 0.512 2.4832-1.024 4.4032-0.512 2.2528 1.024 2.7392 3.968 5.7344 4.4288 0.4864 1.0496 0.4864 3.2256 1.9712 4.224 0.512 3.968 0 9.1392 1.5104 13.5936l0 0 1.6896 1.024 0 0c3.456 4.6848 0.9728 11.3664 3.968 16.8448-1.4848 4.1728-1.9712 9.1392-6.1696 12.8768-0.4864 3.9168-0.4864 7.6544 0.512 12.0832 3.2 1.9712 7.1424 3.712 12.3648 3.712l0 0 2.432 1.9712 0 0c6.2464 1.5104 13.3888 2.0224 18.3552 6.1952l0 0 3.2 0 0 0c4.48 0.9984 6.9376 5.4528 12.16 7.424 0 1.7408 0.9472 4.1728 1.4336 6.1696 2.9952 0.4864 2.9952 4.7104 6.2208 6.1696l0 0 1.4848 0 0 0c1.4592 0.512 3.4304 0.512 4.4288 2.0224 1.7152 2.432 1.2288 7.168 1.7152 10.6496l0 0 2.9696 4.1728 0 0c-0.4864 1.9712 1.9968 2.9952 1.536 5.9648 0.9728 0.9728 1.408 2.688 3.1744 4.1728l0 0 0 2.9952 0 0c0 1.4848 1.9968 1.4848 2.4832 4.224 1.5104 0.512 2.9952 1.9712 5.4528 2.9184 2.7392-0.512 2.7392 1.9712 5.6832 2.4832 7.1936 0 13.8752 1.4848 21.3248 3.2256l0 0 2.688 1.9968 0 0c12.1088-0.512 22.7584 1.92 35.1488 1.92 1.9712 0.5376 2.4832 2.4832 5.4016 2.9952 1.792 0 4.224 0 6.1952 0 1.9968 1.7408 4.224 2.7136 6.2208 4.224 0 1.4848 0.9984 2.4832 1.4848 4.4544 3.9424 1.7152 7.6544 0 12.0832 2.688 0.9984 2.9952 4.7104 4.48 6.7072 7.6544 6.144 1.0496 11.6224 0 18.2784 0.5376 1.9968 0.4864 2.4832 2.432 5.7344 2.944 4.9152-1.4592 10.624-4.1728 14.5408-7.6544 1.7408 0 2.7392-0.512 4.736-1.024l0 0 1.9712-2.4832 0 0c2.5088-0.4608 4.736-0.9728 7.68-1.6896l0 0 2.4832-2.4832 0 0c7.7056-2.4832 15.872-2.9696 23.0144-4.9408 3.9424 0 9.1136 0 13.5936-1.024 8.6528 0.512 13.3632 0 19.5328-1.2288 1.536-0.9984 1.9968-2.9952 2.9952-5.4016 2.4832-2.7648 4.4544-4.736 7.7056-7.2192 1.4592 0 2.432 0 4.4288-0.512 1.7152-1.4592 1.7152-4.1728 3.2256-6.144 1.4336-0.512 2.4576-1.024 3.4304-2.9696l0 0 0-1.536-2.432-2.688 0 0c-1.5104-2.944-4.736-5.9136-6.2208-10.5984 0.512-3.9936 0-7.7056 0.512-12.16 1.5104-0.512 3.2256-0.512 3.6864-3.2 1.5616-0.9728 2.9952-1.9712 5.9648-2.9696 9.1392-1.4848 17.8432 4.224 27.4688 1.5104 2.2528 0 2.7136-1.5104 4.6848-2.4832l0 0 0.9984-1.536 2.9696-1.4592 0 0c3.2512-2.7136 5.7344-4.6848 9.1392-8.6784 2.7392-0.9984 4.736-0.9984 7.7056-2.176l0 0 1.9456-1.9968 0 0c2.7136 0 5.2224-1.4592 7.7056-2.9696 0.4864-3.7376 2.688-6.1952 2.688-10.624l0 0 0.4864-0.9984 0 0c0.9984-1.2288 1.9968-2.2528 3.968-2.7392 1.4848 0 2.5088 0 4.736 0 3.9168-1.9712 5.888-6.4 10.624-9.6256 2.5088 0 4.48 0 7.6544 0l0 0 3.5072-2.4832 0 0c4.6848 0 9.6256-1.4848 15.3344-0.9984l0 0 1.9968-1.9712 0 0c0-2.2016-1.4848-2.7136-2.5344-4.736-1.9456 0-1.9456-1.92-3.6864-3.4304-2.5088-0.4864-3.968-3.2-5.9392-5.7088l0 0-3.2-1.4592-1.4848-3.2 0 0c-1.9968-1.024-5.4784-0.512-7.7312 1.2288l0 0-1.92 2.9952 0 0c-2.9696 0-3.968 2.4832-6.7328 3.9168-1.4848-0.4864-3.4048 0-5.4016-1.4336l0 0L735.488 248.064l0 0c-1.5104 0-3.9936 0-5.9136 0l0 0-4.224 2.9952 0 0c-2.4832 0.9984-4.48 1.7408-7.68 1.7408l0 0-2.9696-2.2272-0.9728-1.024 0 0c-0.512-1.4848-1.9968-1.92-2.4832-4.4032 0-5.2224 1.4848-11.3664 2.4832-16.8448l0 0 1.4848-1.4592 0 0c0.4864-4.736 2.4832-7.7056 3.6864-12.3648l0 0 1.536-0.9728 0 0c0.4864-4.992 3.9424-8.2176 5.9136-12.6208l0 0 1.28-1.024 0 0c5.888-0.7168 11.5968 0 18.2528 0 1.536-0.7168 3.5072-0.7168 4.5056-2.2528 2.4832-3.456 6.144-6.4 9.6512-10.1376 1.9712-3.9424 0.9728-7.68 1.9712-12.1088 2.2016-3.2 3.2256-8.1408 5.6576-12.3648l0 0 1.5104-0.9984 0 0c1.5104-0.9984 1.5104-3.4816 1.5104-5.9648 0.512-0.512 2.7136-2.688 3.6864-3.6864l0 0 1.5104-2.9696 0 0c-0.9728-2.9952 0.512-5.6832-0.4608-9.1648l0 0-1.0496-0.9984 0 0c-2.4576 0-4.6848-0.512-7.6544-0.512l0 0-3.456-4.224L763.264 131.5584l0 0c1.4848-1.536 2.4576-3.712 3.9424-5.7088l0 0 3.968-0.4864 0 0c1.7152 0 2.7136-0.9984 4.224-2.4832 0.4608-0.9984 0.4608-2.944 1.9456-4.1984l0 0 2.9696-0.512 0.7168-1.4848 0.9984-0.9984 0 0c2.9696-0.9984 5.4784-1.4848 9.1392-1.4848 2.4832 0 2.9696-2.4832 5.9136-2.9952 2.2784 0 3.2256-1.6896 6.1952-2.176 2.4832 0 6.1952 0.4864 9.1392-0.9984 2.9696 1.4848 5.7088 0.4864 9.1392 0.9984 4.736 1.4336 7.7056 2.688 9.6768 4.6592 1.5104 0 2.7136-0.9984 4.1728-2.4832 2.5088-1.2288 4.48 0 7.7056-0.7424 0.9472 2.2272 4.4288 1.792 5.9136 3.7376 0.9984 0.4864 0.9984 3.4816 2.7136 4.4544 2.4832 2.2272 3.4816 5.1712 7.424 7.6544 0.4864 1.9712 0 4.7104 2.2272 6.1696l0 0 1.4848 0.9984 0 0c1.5104 0.9984 0.9984 4.736 2.9952 6.2208 2.432 1.4848 4.6848 3.968 5.1456 7.1424 1.024 1.9968 2.5088 3.9936 3.9936 5.9648 1.5104 0 2.4832 0.9984 4.7104 1.4336 0.512 1.2288 0.512 3.7376 2.4576 4.224 0.512 3.968 1.9712 7.6544 2.9952 12.1088 0.9728 0 2.2272 1.9968 2.7136 3.7376l0 0 2.432 2.4832 0 0c6.2208 1.9968 14.4128 0.9984 21.3248 1.5104 2.6624 1.9456 5.1968 2.944 7.6544 5.1968 1.9712 0 5.1968-0.512 7.68 0.9728 1.4848 1.9968 3.456 4.48 6.7072 6.1696 0.512 1.4848 0.9728 2.4832 2.9696 3.456 0.9728 1.5104 1.4848 2.9952 2.432 5.7088l0 0 0.512 2.944 1.7408 0.512 0 0c1.9712 0.512 3.968 2.9696 5.9392 4.4544 5.1712 0 9.1392-2.4832 14.848-3.9424 2.4576-1.9968 2.4576-5.1968 6.1696-6.1952 0-1.9712 2.4832-2.944 1.9712-5.9392 1.9968-2.688 4.4288-3.2 8.1664-4.1984 2.4832-3.456 7.1424-6.1952 10.624-9.1136l0 0 2.9696 0 2.7136-1.9712 1.4592 0 2.9696 2.4832 0 0c0.5376 1.4592 0.5376 2.432 0 4.6848-1.4848 1.4592-1.9712 1.9712-2.9696 4.4544 0 2.688 0.9984 4.6848 0 7.6544 1.9968 3.4816 2.5088 7.6544 0.5376 12.1088l0 0-1.5104 1.2544 0 0c-3.712 14.6176 0 31.4112-1.9712 47.2576-0.7424 1.4848-1.2544 4.4544-2.7392 6.1696-1.4848 0.5376-1.9712 1.4848-2.9696 3.968-6.144-0.512-12.3648-0.9984-18.2784 1.9968l0 0-0.5376 3.2 0 0c-1.4848 1.9456-5.1968 2.432-6.656 5.4272 0 1.5104 1.4592 4.224 1.4592 6.1696 0.9984 3.968 5.1968 6.7328 5.1968 12.1344C972.8 300.544 971.3152 308.224 973.2608 315.392c-1.92 1.9712-3.4304 4.9664-5.9136 7.4496-1.2544 4.224 0 8.1408-2.7136 12.3648l0 0-0.9984 0.9984 0 0c-1.4592 0.512-2.4832 0.512-4.4288 0l0 0-0.9728-2.9696 0 0c-0.768-0.512-2.7392-1.7408-4.736-1.7408-2.5088 2.7392-3.456 6.7328-6.1696 10.9056-3.4816 3.456-7.7056 6.9376-11.136 11.6224 0 1.9712 1.4848 2.4832 2.432 4.4544 0 2.7648-1.4848 3.2512-2.432 5.7344l0 0-2.9952 1.9456 0 0c-7.1424 1.7408-13.8496 0-21.504-1.4336-1.5104 0.4352-3.4816 0.4352-4.48 1.92-0.9984 1.7408-1.9712 3.2256-3.2256 6.1952l0 0 0 1.536-2.4576 2.688 0 0c-0.4864 1.4848-1.9712 1.9712-2.4832 4.4544l0 0 0 1.4848 0 0c0 3.2512-4.224 4.1984-4.736 7.6544l0 0-0.9984 2.9696 0 0c-4.4288 2.2528-2.9696 5.1968-4.4288 7.168-2.7136 1.024-5.1968 3.712-6.7072 6.7072l0 0 0 1.5104 0 0c-4.6848 4.1728-12.5952 7.6544-20.7872 7.168-2.2272 0.9984-4.224 1.4592-6.1696 3.968 0 1.7152-0.9984 2.688-1.5104 4.6592-0.9728 1.5104-1.4592 2.5088-3.712 4.48 0 1.7152-0.9984 2.7136-1.5104 4.6848l0 0-2.944 2.9696 0 0c-0.5376 0.9984-0.5376 3.2256-1.9968 4.224l0 0-1.6896 0 0 0c-1.024 0.9984-1.5104 2.5088-2.9696 3.968-3.968 0.9728-6.1696 3.6864-10.6496 3.6864-0.512-2.2272-1.9712-2.7136-2.9952-5.6576 0.5376-0.512 1.5104-2.4832 1.5104-4.736l0 0 1.9968-1.9712 0 0c3.968-7.168-0.9984-16.3072 1.9712-24.2688l0 0 2.4576-1.7408 0 0c1.7408-0.9728 1.2544-4.4032 3.2256-5.9136 0-2.688-0.512-4.7104-1.4848-7.6288-2.688-0.4864-3.2 1.9456-6.1696 2.4576-1.5104 0-2.4832 0.4864-4.736 0.9728-2.4832 2.0224-2.9696 4.736-4.4288 7.6544-0.4864 1.5104-1.9712 2.048-3.4816 4.224 0 1.5104-1.2288 2.4832-1.7408 4.5056-2.9184 1.4592-5.888 3.456-10.624 5.1968-2.9952 3.4304-5.6832 7.424-8.1408 12.1088 0.512 1.9712-1.5104 1.9712-0.9984 4.4544-1.9712 1.7408-3.968 3.2256-6.1952 5.7088-1.9456 0-2.944 1.4592-5.9136 1.9456-1.5104 0-2.7136-0.512-4.736-0.9728-1.4848 0-3.4816 0.4608-4.4288 1.4592-2.7136 1.2288 0 3.7376-0.9984 6.1952 0.9984 2.944 2.9952 4.6848 4.9408 7.168 2.9696 0.9984 7.1936 0 10.624 0.512 4.736 0.9984 8.192 3.4816 10.9312 7.168 0 2.0224 0 4.4544 0 7.1936l0 0-2.7136 1.4592 1.5104 2.9952 0 0c1.7152 0 2.6624 1.024 4.6592 1.024 2.9696-2.4832 6.6816-5.4528 8.704-9.6768l0 0 2.9184-0.512 0 0c4.224-4.4288 10.6496-9.6256 18.3552-9.1392l0 0 3.1744 3.9424 0 0c2.5088 0 4.48 1.2544 7.7056 2.7136l0 0 1.5104-0.9728 0 0c2.432 0 3.9168 2.4832 7.68 2.4832 1.4592-0.5376 2.4832 0 4.4544-0.5376 1.9456 0 2.4576 1.5104 4.6848 2.5088l0 0 0.9984 3.2 0 0c-4.224 5.4528-10.6496 10.1376-16.8192 13.1328l0 0-0.5376 1.5104 0 0c-1.4848 1.4848-5.1712 0.4864-7.6544 1.9968l0 0-0.9984 1.2288 0 0c-0.9984 1.9456-0.512 5.4272-2.4576 7.3984l0 0L832.256 500.736l0 0c-0.9984 1.5104-1.9712 3.4304-2.9696 5.9136-3.9936 3.2512-8.6528 5.7344-11.1616 11.8784-1.5104 1.5104-3.7376 1.9968-4.224 4.9664-1.4848 0.4864-1.9712 2.4832-3.456 4.6592 0 2.9952 2.9696 2.5088 3.9424 4.992 2.2272 1.9712 6.2208 0.9728 9.1648 1.4848 2.2272 2.7392 5.1968 0.9984 6.7072 4.224l0 0 2.9184 1.4592 0 0c1.7408 1.4848 1.2544 5.1968 1.7408 7.6544l0 0 3.456 3.9424 0 0c0.5376 7.1936 3.968 13.8752 2.9952 21.5296l0 0 0.512 1.536 0 0c2.176 2.4832 6.1696 2.4832 8.6528 6.7072 1.7408 2.4832 3.2 4.8896 4.7104 9.1136l0 0 2.944 2.9696 0 0c0.9984 2.4576 3.2256 5.7088 3.2256 9.1392 1.4848 1.9968 3.968 4.736 6.912 6.1696l0 0 1.792 3.5072 0 0c-1.792 3.2-5.7344 4.6848-8.704 7.6288-1.7408 0.5376-2.2272 1.9968-4.6848 2.5344-1.5104 0-2.5088 0-4.4544 0l0 0-1.7408 2.688 1.2288 0.9984 0 0c2.9952 0.9728 6.9376-0.512 10.6496 0 2.4832 2.9952 5.4272 5.9648 9.6512 8.1152 0.9728 5.9648 2.9696 11.648 2.4832 18.3552l0 0-1.5104 4.4032 0 0c-2.4832 3.7632 0 9.1904 0 13.9264l0 0-0.9728 1.4592 0 0c-1.5104 1.024-3.7376 1.92-6.1696 2.9952-1.9968 2.2528-2.4832 5.6832-5.4784 8.1408-0.7424 5.1968-3.6864 9.1392-5.6576 13.8752 0 2.9184-1.9968 3.9168-2.4832 7.6544 0 1.9712-1.7408 2.9696-2.2528 5.9136 0 1.5104 0 4.224-0.9984 6.1952-0.9728 0.512-2.9184 0.512-3.968 1.9712 0 0.9984 0 3.712-1.9456 4.1728-1.2288 3.968 0.4864 7.7056 0.4864 12.16-1.2288 2.9696-3.2 5.1712-4.1984 9.1648l0 0-0.9984 0.9728-1.4848 0.512-0.9984 0.9472 0 0c-0.9728 1.7408 0 2.7392-0.9728 4.736l0 0-2.688 1.9712 0 0c-2.5088 1.536-2.5088 6.656-4.9664 8.6784l0 0-2.7136 1.9712 0 0c-2.4576 0.9984-4.4288 0-7.3984 0.512l0 0-2.2272 2.7136 0 0c-1.024 1.4592 0 3.9168 0 5.888l0 0-2.5088 1.7408 0 0c-3.4816 2.0224-4.4288 6.4768-8.6528 9.6256-1.5104 0-2.4832 1.024-4.4288 1.536l0 0-1.2544 0.9984 0 0c-0.4864 1.9712 2.6624 0.9728 3.2 3.456l0 0-0.9984 0.9984 0 0c-1.4592 0-2.6624 0-4.6848 0-0.9984 3.1744-5.4272 3.1744-7.1936 6.144 0 4.224-3.456 6.7072-6.4256 8.6784l0 0-1.7152 0 0 0c-3.456 4.224-9.6512 5.7088-15.5904 5.248l0 0-4.1984 3.4304 0 0c-2.944 0.4864-5.4528-0.9472-9.1136 1.024l0 0-1.5104 1.4592 0 0c-3.9936 0.9728-7.1936 5.7088-12.1344 7.168l0 0-1.7152-0.9728 0 0c-1.9968 0.512-2.9952 1.9712-5.9648 2.4832l0 0-1.4848-0.512 0 0c-0.4864-1.4848 0-2.4832-0.4864-4.4544l0 0-2.7136-0.9984 0 0c-0.9984 0.512-0.9984 2.4832-1.9712 3.968l0 0-2.5088 1.9712 0 0c-1.5104 0-2.7136 0-4.6848 0-2.4832 0.512-3.968 1.024-5.9392 3.6864 0 1.9712-1.7408 1.9712-2.2528 4.5056-3.4304 2.688-9.1136 1.4848-13.568 2.688l0 0-1.4848 2.4832 0 0c-0.512 0.4864-2.7392 1.4848-4.736 1.4848-2.9696 0.512-4.48 3.4816-7.6544 5.1712-2.4832-0.4608-5.4784 0-8.704 0.5376l0 0-1.4592 1.5104 0 0c-1.5104 0.512-1.9712 1.9712-4.48 2.432-1.7152 0-2.7136 0.5376-4.7104 1.024l0 0-1.536 2.688 1.536 0.9984 0 0c0.9728 1.4848 1.9712 2.9952 2.9696 5.9136 0 2.7136-2.5088 4.736-2.5088 7.7312-0.4864 1.4592-3.9168 0.9472-4.9152 3.2l0 0 0 1.4336 0 0c5.9136 2.5344 11.648 0 18.304 2.0736l0 0 1.9712 2.432 0 0c0 1.4848 0 4.224-0.9728 6.1952l0 0-3.2512 0.9984 0 0c-1.92 1.4336-3.4048 3.9424-5.888 6.656-0.512 3.5072 1.5104 8.6784-0.9984 12.1344l0 0-3.2256 1.5104-1.4848 3.1744 0 0c-1.9456 1.5104-5.1712 2.9696-8.6784 3.4816-0.4864 1.9712-3.4816 1.4848-4.4032 2.9952-3.2512 0-5.76 0-9.1904 0l0 0L637.7216 915.968 637.7216 915.9168z" p-id="4556"></path></svg>