<?xml version="1.0" standalone="no"?><!DOCTYPE svg PUBLIC "-//W3C//DTD SVG 1.1//EN" "http://www.w3.org/Graphics/SVG/1.1/DTD/svg11.dtd"><svg t="1648102210901" class="icon" viewBox="0 0 1024 1024" version="1.1" xmlns="http://www.w3.org/2000/svg" p-id="12945" xmlns:xlink="http://www.w3.org/1999/xlink" width="48" height="48"><defs><style type="text/css"></style></defs><path d="M634.88 906.24c-169.472 0-307.2-137.728-307.2-307.2s137.728-307.2 307.2-307.2 307.2 137.728 307.2 307.2-137.728 307.2-307.2 307.2z m0-552.96c-135.68 0-245.76 110.08-245.76 245.76s110.08 245.76 245.76 245.76 245.76-110.08 245.76-245.76-110.08-245.76-245.76-245.76z" fill="#E09527" p-id="12946"></path><path d="M916.48 179.2H107.52c-16.896 0-30.72-13.824-30.72-30.72s13.824-30.72 30.72-30.72h808.96c16.896 0 30.72 13.824 30.72 30.72s-13.824 30.72-30.72 30.72zM332.8 353.28H107.52c-16.896 0-30.72-13.824-30.72-30.72s13.824-30.72 30.72-30.72h225.28c16.896 0 30.72 13.824 30.72 30.72s-13.824 30.72-30.72 30.72zM261.12 537.6H107.52c-16.896 0-30.72-13.824-30.72-30.72s13.824-30.72 30.72-30.72h153.6c16.896 0 30.72 13.824 30.72 30.72s-13.824 30.72-30.72 30.72zM261.12 721.92H107.52c-16.896 0-30.72-13.824-30.72-30.72s13.824-30.72 30.72-30.72h153.6c16.896 0 30.72 13.824 30.72 30.72s-13.824 30.72-30.72 30.72zM332.8 906.24H107.52c-16.896 0-30.72-13.824-30.72-30.72s13.824-30.72 30.72-30.72h225.28c16.896 0 30.72 13.824 30.72 30.72s-13.824 30.72-30.72 30.72z" fill="#A32A1F" p-id="12947"></path><path d="M762.368 629.76H634.88c-16.896 0-30.72-13.824-30.72-30.72V471.552c0-16.896 13.824-30.72 30.72-30.72s30.72 13.824 30.72 30.72V568.32h96.768c16.896 0 30.72 13.824 30.72 30.72s-13.824 30.72-30.72 30.72z" fill="#E09527" p-id="12948"></path></svg>